<mxfile host="app.diagrams.net" modified="2022-10-01T09:35:56.768Z" agent="5.0 (Windows NT 10.0; Win64; x64) AppleWebKit/537.36 (KHTML, like Gecko) Chrome/106.0.0.0 Safari/537.36" etag="EzSv0WxECyBzO2KJRog_" version="20.4.0" type="github">
  <diagram id="BTv470Oc1mjoHUc5IOD0" name="Page-1">
    <mxGraphModel dx="1953" dy="1278" grid="1" gridSize="10" guides="1" tooltips="1" connect="1" arrows="1" fold="1" page="1" pageScale="1" pageWidth="850" pageHeight="1100" math="0" shadow="0">
      <root>
        <mxCell id="0" />
        <mxCell id="1" parent="0" />
        <mxCell id="v1vIa1xV1tvnQ-AfuU4b-1" value="" style="shape=table;startSize=0;container=1;collapsible=0;childLayout=tableLayout;" parent="1" vertex="1">
          <mxGeometry x="4" y="100" width="837" height="250" as="geometry" />
        </mxCell>
        <mxCell id="v1vIa1xV1tvnQ-AfuU4b-2" value="" style="shape=tableRow;horizontal=0;startSize=0;swimlaneHead=0;swimlaneBody=0;top=0;left=0;bottom=0;right=0;collapsible=0;dropTarget=0;fillColor=none;points=[[0,0.5],[1,0.5]];portConstraint=eastwest;" parent="v1vIa1xV1tvnQ-AfuU4b-1" vertex="1">
          <mxGeometry width="837" height="50" as="geometry" />
        </mxCell>
        <mxCell id="v1vIa1xV1tvnQ-AfuU4b-3" value="&lt;u&gt;&lt;b&gt;SSN&lt;/b&gt;&lt;/u&gt;" style="shape=partialRectangle;html=1;whiteSpace=wrap;connectable=0;overflow=hidden;fillColor=none;top=0;left=0;bottom=0;right=0;pointerEvents=1;" parent="v1vIa1xV1tvnQ-AfuU4b-2" vertex="1">
          <mxGeometry width="63" height="50" as="geometry">
            <mxRectangle width="63" height="50" as="alternateBounds" />
          </mxGeometry>
        </mxCell>
        <mxCell id="v1vIa1xV1tvnQ-AfuU4b-4" value="SUPERVISOR_SSN" style="shape=partialRectangle;html=1;whiteSpace=wrap;connectable=0;overflow=hidden;fillColor=none;top=0;left=0;bottom=0;right=0;pointerEvents=1;" parent="v1vIa1xV1tvnQ-AfuU4b-2" vertex="1">
          <mxGeometry x="63" width="123" height="50" as="geometry">
            <mxRectangle width="123" height="50" as="alternateBounds" />
          </mxGeometry>
        </mxCell>
        <mxCell id="v1vIa1xV1tvnQ-AfuU4b-5" value="DEP_NUMBER" style="shape=partialRectangle;html=1;whiteSpace=wrap;connectable=0;overflow=hidden;fillColor=none;top=0;left=0;bottom=0;right=0;pointerEvents=1;" parent="v1vIa1xV1tvnQ-AfuU4b-2" vertex="1">
          <mxGeometry x="186" width="110" height="50" as="geometry">
            <mxRectangle width="110" height="50" as="alternateBounds" />
          </mxGeometry>
        </mxCell>
        <mxCell id="v1vIa1xV1tvnQ-AfuU4b-6" value="FNAME" style="shape=partialRectangle;html=1;whiteSpace=wrap;connectable=0;overflow=hidden;fillColor=none;top=0;left=0;bottom=0;right=0;pointerEvents=1;" parent="v1vIa1xV1tvnQ-AfuU4b-2" vertex="1">
          <mxGeometry x="296" width="66" height="50" as="geometry">
            <mxRectangle width="66" height="50" as="alternateBounds" />
          </mxGeometry>
        </mxCell>
        <mxCell id="v1vIa1xV1tvnQ-AfuU4b-7" value="MINIT" style="shape=partialRectangle;html=1;whiteSpace=wrap;connectable=0;overflow=hidden;fillColor=none;top=0;left=0;bottom=0;right=0;pointerEvents=1;" parent="v1vIa1xV1tvnQ-AfuU4b-2" vertex="1">
          <mxGeometry x="362" width="70" height="50" as="geometry">
            <mxRectangle width="70" height="50" as="alternateBounds" />
          </mxGeometry>
        </mxCell>
        <mxCell id="v1vIa1xV1tvnQ-AfuU4b-8" value="LNAME" style="shape=partialRectangle;html=1;whiteSpace=wrap;connectable=0;overflow=hidden;fillColor=none;top=0;left=0;bottom=0;right=0;pointerEvents=1;" parent="v1vIa1xV1tvnQ-AfuU4b-2" vertex="1">
          <mxGeometry x="432" width="69" height="50" as="geometry">
            <mxRectangle width="69" height="50" as="alternateBounds" />
          </mxGeometry>
        </mxCell>
        <mxCell id="v1vIa1xV1tvnQ-AfuU4b-9" value="BDATE" style="shape=partialRectangle;html=1;whiteSpace=wrap;connectable=0;overflow=hidden;fillColor=none;top=0;left=0;bottom=0;right=0;pointerEvents=1;" parent="v1vIa1xV1tvnQ-AfuU4b-2" vertex="1">
          <mxGeometry x="501" width="84" height="50" as="geometry">
            <mxRectangle width="84" height="50" as="alternateBounds" />
          </mxGeometry>
        </mxCell>
        <mxCell id="v1vIa1xV1tvnQ-AfuU4b-10" value="SEX" style="shape=partialRectangle;html=1;whiteSpace=wrap;connectable=0;overflow=hidden;fillColor=none;top=0;left=0;bottom=0;right=0;pointerEvents=1;" parent="v1vIa1xV1tvnQ-AfuU4b-2" vertex="1">
          <mxGeometry x="585" width="71" height="50" as="geometry">
            <mxRectangle width="71" height="50" as="alternateBounds" />
          </mxGeometry>
        </mxCell>
        <mxCell id="v1vIa1xV1tvnQ-AfuU4b-11" value="ADDRESS" style="shape=partialRectangle;html=1;whiteSpace=wrap;connectable=0;overflow=hidden;fillColor=none;top=0;left=0;bottom=0;right=0;pointerEvents=1;" parent="v1vIa1xV1tvnQ-AfuU4b-2" vertex="1">
          <mxGeometry x="656" width="97" height="50" as="geometry">
            <mxRectangle width="97" height="50" as="alternateBounds" />
          </mxGeometry>
        </mxCell>
        <mxCell id="v1vIa1xV1tvnQ-AfuU4b-12" value="SALARY" style="shape=partialRectangle;html=1;whiteSpace=wrap;connectable=0;overflow=hidden;fillColor=none;top=0;left=0;bottom=0;right=0;pointerEvents=1;" parent="v1vIa1xV1tvnQ-AfuU4b-2" vertex="1">
          <mxGeometry x="753" width="84" height="50" as="geometry">
            <mxRectangle width="84" height="50" as="alternateBounds" />
          </mxGeometry>
        </mxCell>
        <mxCell id="1qGrM2Z2qLWV-Hj0ncUH-13" value="" style="shape=tableRow;horizontal=0;startSize=0;swimlaneHead=0;swimlaneBody=0;top=0;left=0;bottom=0;right=0;collapsible=0;dropTarget=0;fillColor=none;points=[[0,0.5],[1,0.5]];portConstraint=eastwest;" vertex="1" parent="v1vIa1xV1tvnQ-AfuU4b-1">
          <mxGeometry y="50" width="837" height="50" as="geometry" />
        </mxCell>
        <mxCell id="1qGrM2Z2qLWV-Hj0ncUH-14" value="215" style="shape=partialRectangle;html=1;whiteSpace=wrap;connectable=0;overflow=hidden;fillColor=none;top=0;left=0;bottom=0;right=0;pointerEvents=1;" vertex="1" parent="1qGrM2Z2qLWV-Hj0ncUH-13">
          <mxGeometry width="63" height="50" as="geometry">
            <mxRectangle width="63" height="50" as="alternateBounds" />
          </mxGeometry>
        </mxCell>
        <mxCell id="1qGrM2Z2qLWV-Hj0ncUH-15" value="555" style="shape=partialRectangle;html=1;whiteSpace=wrap;connectable=0;overflow=hidden;fillColor=none;top=0;left=0;bottom=0;right=0;pointerEvents=1;" vertex="1" parent="1qGrM2Z2qLWV-Hj0ncUH-13">
          <mxGeometry x="63" width="123" height="50" as="geometry">
            <mxRectangle width="123" height="50" as="alternateBounds" />
          </mxGeometry>
        </mxCell>
        <mxCell id="1qGrM2Z2qLWV-Hj0ncUH-16" value="1" style="shape=partialRectangle;html=1;whiteSpace=wrap;connectable=0;overflow=hidden;fillColor=none;top=0;left=0;bottom=0;right=0;pointerEvents=1;" vertex="1" parent="1qGrM2Z2qLWV-Hj0ncUH-13">
          <mxGeometry x="186" width="110" height="50" as="geometry">
            <mxRectangle width="110" height="50" as="alternateBounds" />
          </mxGeometry>
        </mxCell>
        <mxCell id="1qGrM2Z2qLWV-Hj0ncUH-17" value="DAVID" style="shape=partialRectangle;html=1;whiteSpace=wrap;connectable=0;overflow=hidden;fillColor=none;top=0;left=0;bottom=0;right=0;pointerEvents=1;" vertex="1" parent="1qGrM2Z2qLWV-Hj0ncUH-13">
          <mxGeometry x="296" width="66" height="50" as="geometry">
            <mxRectangle width="66" height="50" as="alternateBounds" />
          </mxGeometry>
        </mxCell>
        <mxCell id="1qGrM2Z2qLWV-Hj0ncUH-18" value="JAMES" style="shape=partialRectangle;html=1;whiteSpace=wrap;connectable=0;overflow=hidden;fillColor=none;top=0;left=0;bottom=0;right=0;pointerEvents=1;" vertex="1" parent="1qGrM2Z2qLWV-Hj0ncUH-13">
          <mxGeometry x="362" width="70" height="50" as="geometry">
            <mxRectangle width="70" height="50" as="alternateBounds" />
          </mxGeometry>
        </mxCell>
        <mxCell id="1qGrM2Z2qLWV-Hj0ncUH-19" value="LEONARDO" style="shape=partialRectangle;html=1;whiteSpace=wrap;connectable=0;overflow=hidden;fillColor=none;top=0;left=0;bottom=0;right=0;pointerEvents=1;" vertex="1" parent="1qGrM2Z2qLWV-Hj0ncUH-13">
          <mxGeometry x="432" width="69" height="50" as="geometry">
            <mxRectangle width="69" height="50" as="alternateBounds" />
          </mxGeometry>
        </mxCell>
        <mxCell id="1qGrM2Z2qLWV-Hj0ncUH-20" value="2 JANUARY 1987" style="shape=partialRectangle;html=1;whiteSpace=wrap;connectable=0;overflow=hidden;fillColor=none;top=0;left=0;bottom=0;right=0;pointerEvents=1;" vertex="1" parent="1qGrM2Z2qLWV-Hj0ncUH-13">
          <mxGeometry x="501" width="84" height="50" as="geometry">
            <mxRectangle width="84" height="50" as="alternateBounds" />
          </mxGeometry>
        </mxCell>
        <mxCell id="1qGrM2Z2qLWV-Hj0ncUH-21" value="MALE" style="shape=partialRectangle;html=1;whiteSpace=wrap;connectable=0;overflow=hidden;fillColor=none;top=0;left=0;bottom=0;right=0;pointerEvents=1;" vertex="1" parent="1qGrM2Z2qLWV-Hj0ncUH-13">
          <mxGeometry x="585" width="71" height="50" as="geometry">
            <mxRectangle width="71" height="50" as="alternateBounds" />
          </mxGeometry>
        </mxCell>
        <mxCell id="1qGrM2Z2qLWV-Hj0ncUH-22" value="NEW YORK" style="shape=partialRectangle;html=1;whiteSpace=wrap;connectable=0;overflow=hidden;fillColor=none;top=0;left=0;bottom=0;right=0;pointerEvents=1;" vertex="1" parent="1qGrM2Z2qLWV-Hj0ncUH-13">
          <mxGeometry x="656" width="97" height="50" as="geometry">
            <mxRectangle width="97" height="50" as="alternateBounds" />
          </mxGeometry>
        </mxCell>
        <mxCell id="1qGrM2Z2qLWV-Hj0ncUH-23" value="5000" style="shape=partialRectangle;html=1;whiteSpace=wrap;connectable=0;overflow=hidden;fillColor=none;top=0;left=0;bottom=0;right=0;pointerEvents=1;" vertex="1" parent="1qGrM2Z2qLWV-Hj0ncUH-13">
          <mxGeometry x="753" width="84" height="50" as="geometry">
            <mxRectangle width="84" height="50" as="alternateBounds" />
          </mxGeometry>
        </mxCell>
        <mxCell id="1qGrM2Z2qLWV-Hj0ncUH-24" value="" style="shape=tableRow;horizontal=0;startSize=0;swimlaneHead=0;swimlaneBody=0;top=0;left=0;bottom=0;right=0;collapsible=0;dropTarget=0;fillColor=none;points=[[0,0.5],[1,0.5]];portConstraint=eastwest;" vertex="1" parent="v1vIa1xV1tvnQ-AfuU4b-1">
          <mxGeometry y="100" width="837" height="50" as="geometry" />
        </mxCell>
        <mxCell id="1qGrM2Z2qLWV-Hj0ncUH-25" value="150" style="shape=partialRectangle;html=1;whiteSpace=wrap;connectable=0;overflow=hidden;fillColor=none;top=0;left=0;bottom=0;right=0;pointerEvents=1;" vertex="1" parent="1qGrM2Z2qLWV-Hj0ncUH-24">
          <mxGeometry width="63" height="50" as="geometry">
            <mxRectangle width="63" height="50" as="alternateBounds" />
          </mxGeometry>
        </mxCell>
        <mxCell id="1qGrM2Z2qLWV-Hj0ncUH-26" value="555" style="shape=partialRectangle;html=1;whiteSpace=wrap;connectable=0;overflow=hidden;fillColor=none;top=0;left=0;bottom=0;right=0;pointerEvents=1;" vertex="1" parent="1qGrM2Z2qLWV-Hj0ncUH-24">
          <mxGeometry x="63" width="123" height="50" as="geometry">
            <mxRectangle width="123" height="50" as="alternateBounds" />
          </mxGeometry>
        </mxCell>
        <mxCell id="1qGrM2Z2qLWV-Hj0ncUH-27" value="2" style="shape=partialRectangle;html=1;whiteSpace=wrap;connectable=0;overflow=hidden;fillColor=none;top=0;left=0;bottom=0;right=0;pointerEvents=1;" vertex="1" parent="1qGrM2Z2qLWV-Hj0ncUH-24">
          <mxGeometry x="186" width="110" height="50" as="geometry">
            <mxRectangle width="110" height="50" as="alternateBounds" />
          </mxGeometry>
        </mxCell>
        <mxCell id="1qGrM2Z2qLWV-Hj0ncUH-28" value="ROBERT" style="shape=partialRectangle;html=1;whiteSpace=wrap;connectable=0;overflow=hidden;fillColor=none;top=0;left=0;bottom=0;right=0;pointerEvents=1;" vertex="1" parent="1qGrM2Z2qLWV-Hj0ncUH-24">
          <mxGeometry x="296" width="66" height="50" as="geometry">
            <mxRectangle width="66" height="50" as="alternateBounds" />
          </mxGeometry>
        </mxCell>
        <mxCell id="1qGrM2Z2qLWV-Hj0ncUH-29" value="TRISTAN" style="shape=partialRectangle;html=1;whiteSpace=wrap;connectable=0;overflow=hidden;fillColor=none;top=0;left=0;bottom=0;right=0;pointerEvents=1;" vertex="1" parent="1qGrM2Z2qLWV-Hj0ncUH-24">
          <mxGeometry x="362" width="70" height="50" as="geometry">
            <mxRectangle width="70" height="50" as="alternateBounds" />
          </mxGeometry>
        </mxCell>
        <mxCell id="1qGrM2Z2qLWV-Hj0ncUH-30" value="JUNIOR" style="shape=partialRectangle;html=1;whiteSpace=wrap;connectable=0;overflow=hidden;fillColor=none;top=0;left=0;bottom=0;right=0;pointerEvents=1;" vertex="1" parent="1qGrM2Z2qLWV-Hj0ncUH-24">
          <mxGeometry x="432" width="69" height="50" as="geometry">
            <mxRectangle width="69" height="50" as="alternateBounds" />
          </mxGeometry>
        </mxCell>
        <mxCell id="1qGrM2Z2qLWV-Hj0ncUH-31" value="3 JANUARY 1987" style="shape=partialRectangle;html=1;whiteSpace=wrap;connectable=0;overflow=hidden;fillColor=none;top=0;left=0;bottom=0;right=0;pointerEvents=1;" vertex="1" parent="1qGrM2Z2qLWV-Hj0ncUH-24">
          <mxGeometry x="501" width="84" height="50" as="geometry">
            <mxRectangle width="84" height="50" as="alternateBounds" />
          </mxGeometry>
        </mxCell>
        <mxCell id="1qGrM2Z2qLWV-Hj0ncUH-32" value="MALE" style="shape=partialRectangle;html=1;whiteSpace=wrap;connectable=0;overflow=hidden;fillColor=none;top=0;left=0;bottom=0;right=0;pointerEvents=1;" vertex="1" parent="1qGrM2Z2qLWV-Hj0ncUH-24">
          <mxGeometry x="585" width="71" height="50" as="geometry">
            <mxRectangle width="71" height="50" as="alternateBounds" />
          </mxGeometry>
        </mxCell>
        <mxCell id="1qGrM2Z2qLWV-Hj0ncUH-33" value="MANHATTAN" style="shape=partialRectangle;html=1;whiteSpace=wrap;connectable=0;overflow=hidden;fillColor=none;top=0;left=0;bottom=0;right=0;pointerEvents=1;" vertex="1" parent="1qGrM2Z2qLWV-Hj0ncUH-24">
          <mxGeometry x="656" width="97" height="50" as="geometry">
            <mxRectangle width="97" height="50" as="alternateBounds" />
          </mxGeometry>
        </mxCell>
        <mxCell id="1qGrM2Z2qLWV-Hj0ncUH-34" value="5000" style="shape=partialRectangle;html=1;whiteSpace=wrap;connectable=0;overflow=hidden;fillColor=none;top=0;left=0;bottom=0;right=0;pointerEvents=1;" vertex="1" parent="1qGrM2Z2qLWV-Hj0ncUH-24">
          <mxGeometry x="753" width="84" height="50" as="geometry">
            <mxRectangle width="84" height="50" as="alternateBounds" />
          </mxGeometry>
        </mxCell>
        <mxCell id="1qGrM2Z2qLWV-Hj0ncUH-69" value="" style="shape=tableRow;horizontal=0;startSize=0;swimlaneHead=0;swimlaneBody=0;top=0;left=0;bottom=0;right=0;collapsible=0;dropTarget=0;fillColor=none;points=[[0,0.5],[1,0.5]];portConstraint=eastwest;" vertex="1" parent="v1vIa1xV1tvnQ-AfuU4b-1">
          <mxGeometry y="150" width="837" height="50" as="geometry" />
        </mxCell>
        <mxCell id="1qGrM2Z2qLWV-Hj0ncUH-70" value="234" style="shape=partialRectangle;html=1;whiteSpace=wrap;connectable=0;overflow=hidden;fillColor=none;top=0;left=0;bottom=0;right=0;pointerEvents=1;" vertex="1" parent="1qGrM2Z2qLWV-Hj0ncUH-69">
          <mxGeometry width="63" height="50" as="geometry">
            <mxRectangle width="63" height="50" as="alternateBounds" />
          </mxGeometry>
        </mxCell>
        <mxCell id="1qGrM2Z2qLWV-Hj0ncUH-71" value="555" style="shape=partialRectangle;html=1;whiteSpace=wrap;connectable=0;overflow=hidden;fillColor=none;top=0;left=0;bottom=0;right=0;pointerEvents=1;" vertex="1" parent="1qGrM2Z2qLWV-Hj0ncUH-69">
          <mxGeometry x="63" width="123" height="50" as="geometry">
            <mxRectangle width="123" height="50" as="alternateBounds" />
          </mxGeometry>
        </mxCell>
        <mxCell id="1qGrM2Z2qLWV-Hj0ncUH-72" value="3" style="shape=partialRectangle;html=1;whiteSpace=wrap;connectable=0;overflow=hidden;fillColor=none;top=0;left=0;bottom=0;right=0;pointerEvents=1;" vertex="1" parent="1qGrM2Z2qLWV-Hj0ncUH-69">
          <mxGeometry x="186" width="110" height="50" as="geometry">
            <mxRectangle width="110" height="50" as="alternateBounds" />
          </mxGeometry>
        </mxCell>
        <mxCell id="1qGrM2Z2qLWV-Hj0ncUH-73" value="KEVIN" style="shape=partialRectangle;html=1;whiteSpace=wrap;connectable=0;overflow=hidden;fillColor=none;top=0;left=0;bottom=0;right=0;pointerEvents=1;" vertex="1" parent="1qGrM2Z2qLWV-Hj0ncUH-69">
          <mxGeometry x="296" width="66" height="50" as="geometry">
            <mxRectangle width="66" height="50" as="alternateBounds" />
          </mxGeometry>
        </mxCell>
        <mxCell id="1qGrM2Z2qLWV-Hj0ncUH-74" value="THE" style="shape=partialRectangle;html=1;whiteSpace=wrap;connectable=0;overflow=hidden;fillColor=none;top=0;left=0;bottom=0;right=0;pointerEvents=1;" vertex="1" parent="1qGrM2Z2qLWV-Hj0ncUH-69">
          <mxGeometry x="362" width="70" height="50" as="geometry">
            <mxRectangle width="70" height="50" as="alternateBounds" />
          </mxGeometry>
        </mxCell>
        <mxCell id="1qGrM2Z2qLWV-Hj0ncUH-75" value="DESTRO" style="shape=partialRectangle;html=1;whiteSpace=wrap;connectable=0;overflow=hidden;fillColor=none;top=0;left=0;bottom=0;right=0;pointerEvents=1;" vertex="1" parent="1qGrM2Z2qLWV-Hj0ncUH-69">
          <mxGeometry x="432" width="69" height="50" as="geometry">
            <mxRectangle width="69" height="50" as="alternateBounds" />
          </mxGeometry>
        </mxCell>
        <mxCell id="1qGrM2Z2qLWV-Hj0ncUH-76" value="4 JANUARY 1987" style="shape=partialRectangle;html=1;whiteSpace=wrap;connectable=0;overflow=hidden;fillColor=none;top=0;left=0;bottom=0;right=0;pointerEvents=1;" vertex="1" parent="1qGrM2Z2qLWV-Hj0ncUH-69">
          <mxGeometry x="501" width="84" height="50" as="geometry">
            <mxRectangle width="84" height="50" as="alternateBounds" />
          </mxGeometry>
        </mxCell>
        <mxCell id="1qGrM2Z2qLWV-Hj0ncUH-77" value="MALE" style="shape=partialRectangle;html=1;whiteSpace=wrap;connectable=0;overflow=hidden;fillColor=none;top=0;left=0;bottom=0;right=0;pointerEvents=1;" vertex="1" parent="1qGrM2Z2qLWV-Hj0ncUH-69">
          <mxGeometry x="585" width="71" height="50" as="geometry">
            <mxRectangle width="71" height="50" as="alternateBounds" />
          </mxGeometry>
        </mxCell>
        <mxCell id="1qGrM2Z2qLWV-Hj0ncUH-78" value="WASHINGTON" style="shape=partialRectangle;html=1;whiteSpace=wrap;connectable=0;overflow=hidden;fillColor=none;top=0;left=0;bottom=0;right=0;pointerEvents=1;" vertex="1" parent="1qGrM2Z2qLWV-Hj0ncUH-69">
          <mxGeometry x="656" width="97" height="50" as="geometry">
            <mxRectangle width="97" height="50" as="alternateBounds" />
          </mxGeometry>
        </mxCell>
        <mxCell id="1qGrM2Z2qLWV-Hj0ncUH-79" value="5000" style="shape=partialRectangle;html=1;whiteSpace=wrap;connectable=0;overflow=hidden;fillColor=none;top=0;left=0;bottom=0;right=0;pointerEvents=1;" vertex="1" parent="1qGrM2Z2qLWV-Hj0ncUH-69">
          <mxGeometry x="753" width="84" height="50" as="geometry">
            <mxRectangle width="84" height="50" as="alternateBounds" />
          </mxGeometry>
        </mxCell>
        <mxCell id="1qGrM2Z2qLWV-Hj0ncUH-184" value="" style="shape=tableRow;horizontal=0;startSize=0;swimlaneHead=0;swimlaneBody=0;top=0;left=0;bottom=0;right=0;collapsible=0;dropTarget=0;fillColor=none;points=[[0,0.5],[1,0.5]];portConstraint=eastwest;" vertex="1" parent="v1vIa1xV1tvnQ-AfuU4b-1">
          <mxGeometry y="200" width="837" height="50" as="geometry" />
        </mxCell>
        <mxCell id="1qGrM2Z2qLWV-Hj0ncUH-185" value="555" style="shape=partialRectangle;html=1;whiteSpace=wrap;connectable=0;overflow=hidden;fillColor=none;top=0;left=0;bottom=0;right=0;pointerEvents=1;" vertex="1" parent="1qGrM2Z2qLWV-Hj0ncUH-184">
          <mxGeometry width="63" height="50" as="geometry">
            <mxRectangle width="63" height="50" as="alternateBounds" />
          </mxGeometry>
        </mxCell>
        <mxCell id="1qGrM2Z2qLWV-Hj0ncUH-186" value="215" style="shape=partialRectangle;html=1;whiteSpace=wrap;connectable=0;overflow=hidden;fillColor=none;top=0;left=0;bottom=0;right=0;pointerEvents=1;" vertex="1" parent="1qGrM2Z2qLWV-Hj0ncUH-184">
          <mxGeometry x="63" width="123" height="50" as="geometry">
            <mxRectangle width="123" height="50" as="alternateBounds" />
          </mxGeometry>
        </mxCell>
        <mxCell id="1qGrM2Z2qLWV-Hj0ncUH-187" value="3" style="shape=partialRectangle;html=1;whiteSpace=wrap;connectable=0;overflow=hidden;fillColor=none;top=0;left=0;bottom=0;right=0;pointerEvents=1;" vertex="1" parent="1qGrM2Z2qLWV-Hj0ncUH-184">
          <mxGeometry x="186" width="110" height="50" as="geometry">
            <mxRectangle width="110" height="50" as="alternateBounds" />
          </mxGeometry>
        </mxCell>
        <mxCell id="1qGrM2Z2qLWV-Hj0ncUH-188" value="I" style="shape=partialRectangle;html=1;whiteSpace=wrap;connectable=0;overflow=hidden;fillColor=none;top=0;left=0;bottom=0;right=0;pointerEvents=1;" vertex="1" parent="1qGrM2Z2qLWV-Hj0ncUH-184">
          <mxGeometry x="296" width="66" height="50" as="geometry">
            <mxRectangle width="66" height="50" as="alternateBounds" />
          </mxGeometry>
        </mxCell>
        <mxCell id="1qGrM2Z2qLWV-Hj0ncUH-189" value="AM" style="shape=partialRectangle;html=1;whiteSpace=wrap;connectable=0;overflow=hidden;fillColor=none;top=0;left=0;bottom=0;right=0;pointerEvents=1;" vertex="1" parent="1qGrM2Z2qLWV-Hj0ncUH-184">
          <mxGeometry x="362" width="70" height="50" as="geometry">
            <mxRectangle width="70" height="50" as="alternateBounds" />
          </mxGeometry>
        </mxCell>
        <mxCell id="1qGrM2Z2qLWV-Hj0ncUH-190" value="SPEED" style="shape=partialRectangle;html=1;whiteSpace=wrap;connectable=0;overflow=hidden;fillColor=none;top=0;left=0;bottom=0;right=0;pointerEvents=1;" vertex="1" parent="1qGrM2Z2qLWV-Hj0ncUH-184">
          <mxGeometry x="432" width="69" height="50" as="geometry">
            <mxRectangle width="69" height="50" as="alternateBounds" />
          </mxGeometry>
        </mxCell>
        <mxCell id="1qGrM2Z2qLWV-Hj0ncUH-191" value="4 DESEMBER 1987" style="shape=partialRectangle;html=1;whiteSpace=wrap;connectable=0;overflow=hidden;fillColor=none;top=0;left=0;bottom=0;right=0;pointerEvents=1;" vertex="1" parent="1qGrM2Z2qLWV-Hj0ncUH-184">
          <mxGeometry x="501" width="84" height="50" as="geometry">
            <mxRectangle width="84" height="50" as="alternateBounds" />
          </mxGeometry>
        </mxCell>
        <mxCell id="1qGrM2Z2qLWV-Hj0ncUH-192" value="MALE" style="shape=partialRectangle;html=1;whiteSpace=wrap;connectable=0;overflow=hidden;fillColor=none;top=0;left=0;bottom=0;right=0;pointerEvents=1;" vertex="1" parent="1qGrM2Z2qLWV-Hj0ncUH-184">
          <mxGeometry x="585" width="71" height="50" as="geometry">
            <mxRectangle width="71" height="50" as="alternateBounds" />
          </mxGeometry>
        </mxCell>
        <mxCell id="1qGrM2Z2qLWV-Hj0ncUH-193" value="WASHINGTON" style="shape=partialRectangle;html=1;whiteSpace=wrap;connectable=0;overflow=hidden;fillColor=none;top=0;left=0;bottom=0;right=0;pointerEvents=1;" vertex="1" parent="1qGrM2Z2qLWV-Hj0ncUH-184">
          <mxGeometry x="656" width="97" height="50" as="geometry">
            <mxRectangle width="97" height="50" as="alternateBounds" />
          </mxGeometry>
        </mxCell>
        <mxCell id="1qGrM2Z2qLWV-Hj0ncUH-194" value="5000" style="shape=partialRectangle;html=1;whiteSpace=wrap;connectable=0;overflow=hidden;fillColor=none;top=0;left=0;bottom=0;right=0;pointerEvents=1;" vertex="1" parent="1qGrM2Z2qLWV-Hj0ncUH-184">
          <mxGeometry x="753" width="84" height="50" as="geometry">
            <mxRectangle width="84" height="50" as="alternateBounds" />
          </mxGeometry>
        </mxCell>
        <mxCell id="v1vIa1xV1tvnQ-AfuU4b-18" value="" style="shape=table;startSize=0;container=1;collapsible=0;childLayout=tableLayout;fontSize=13;" parent="1" vertex="1">
          <mxGeometry x="6" y="760" width="844" height="230" as="geometry" />
        </mxCell>
        <mxCell id="v1vIa1xV1tvnQ-AfuU4b-19" value="" style="shape=tableRow;horizontal=0;startSize=0;swimlaneHead=0;swimlaneBody=0;top=0;left=0;bottom=0;right=0;collapsible=0;dropTarget=0;fillColor=none;points=[[0,0.5],[1,0.5]];portConstraint=eastwest;fontSize=13;" parent="v1vIa1xV1tvnQ-AfuU4b-18" vertex="1">
          <mxGeometry width="844" height="58" as="geometry" />
        </mxCell>
        <mxCell id="v1vIa1xV1tvnQ-AfuU4b-20" value="&lt;b&gt;&lt;u&gt;ID_LOCATION&lt;/u&gt;&lt;/b&gt;" style="shape=partialRectangle;html=1;whiteSpace=wrap;connectable=0;overflow=hidden;fillColor=none;top=0;left=0;bottom=0;right=0;pointerEvents=1;fontSize=13;" parent="v1vIa1xV1tvnQ-AfuU4b-19" vertex="1">
          <mxGeometry width="160" height="58" as="geometry">
            <mxRectangle width="160" height="58" as="alternateBounds" />
          </mxGeometry>
        </mxCell>
        <mxCell id="v1vIa1xV1tvnQ-AfuU4b-22" value="DEP_NUMBER" style="shape=partialRectangle;html=1;whiteSpace=wrap;connectable=0;overflow=hidden;fillColor=none;top=0;left=0;bottom=0;right=0;pointerEvents=1;fontSize=13;" parent="v1vIa1xV1tvnQ-AfuU4b-19" vertex="1">
          <mxGeometry x="160" width="135" height="58" as="geometry">
            <mxRectangle width="135" height="58" as="alternateBounds" />
          </mxGeometry>
        </mxCell>
        <mxCell id="v1vIa1xV1tvnQ-AfuU4b-23" value="JALAN" style="shape=partialRectangle;html=1;whiteSpace=wrap;connectable=0;overflow=hidden;fillColor=none;top=0;left=0;bottom=0;right=0;pointerEvents=1;fontSize=13;" parent="v1vIa1xV1tvnQ-AfuU4b-19" vertex="1">
          <mxGeometry x="295" width="153" height="58" as="geometry">
            <mxRectangle width="153" height="58" as="alternateBounds" />
          </mxGeometry>
        </mxCell>
        <mxCell id="v1vIa1xV1tvnQ-AfuU4b-27" value="PROVINSI" style="shape=partialRectangle;html=1;whiteSpace=wrap;connectable=0;overflow=hidden;fillColor=none;top=0;left=0;bottom=0;right=0;pointerEvents=1;fontSize=13;" parent="v1vIa1xV1tvnQ-AfuU4b-19" vertex="1">
          <mxGeometry x="448" width="119" height="58" as="geometry">
            <mxRectangle width="119" height="58" as="alternateBounds" />
          </mxGeometry>
        </mxCell>
        <mxCell id="1qGrM2Z2qLWV-Hj0ncUH-204" value="NEGARA_BAGIAN" style="shape=partialRectangle;html=1;whiteSpace=wrap;connectable=0;overflow=hidden;fillColor=none;top=0;left=0;bottom=0;right=0;pointerEvents=1;fontSize=13;" vertex="1" parent="v1vIa1xV1tvnQ-AfuU4b-19">
          <mxGeometry x="567" width="124" height="58" as="geometry">
            <mxRectangle width="124" height="58" as="alternateBounds" />
          </mxGeometry>
        </mxCell>
        <mxCell id="v1vIa1xV1tvnQ-AfuU4b-28" value="KODE_POS" style="shape=partialRectangle;html=1;whiteSpace=wrap;connectable=0;overflow=hidden;fillColor=none;top=0;left=0;bottom=0;right=0;pointerEvents=1;fontSize=13;" parent="v1vIa1xV1tvnQ-AfuU4b-19" vertex="1">
          <mxGeometry x="691" width="153" height="58" as="geometry">
            <mxRectangle width="153" height="58" as="alternateBounds" />
          </mxGeometry>
        </mxCell>
        <mxCell id="1qGrM2Z2qLWV-Hj0ncUH-110" value="" style="shape=tableRow;horizontal=0;startSize=0;swimlaneHead=0;swimlaneBody=0;top=0;left=0;bottom=0;right=0;collapsible=0;dropTarget=0;fillColor=none;points=[[0,0.5],[1,0.5]];portConstraint=eastwest;fontSize=13;" vertex="1" parent="v1vIa1xV1tvnQ-AfuU4b-18">
          <mxGeometry y="58" width="844" height="57" as="geometry" />
        </mxCell>
        <mxCell id="1qGrM2Z2qLWV-Hj0ncUH-111" value="11" style="shape=partialRectangle;html=1;whiteSpace=wrap;connectable=0;overflow=hidden;fillColor=none;top=0;left=0;bottom=0;right=0;pointerEvents=1;fontSize=13;" vertex="1" parent="1qGrM2Z2qLWV-Hj0ncUH-110">
          <mxGeometry width="160" height="57" as="geometry">
            <mxRectangle width="160" height="57" as="alternateBounds" />
          </mxGeometry>
        </mxCell>
        <mxCell id="1qGrM2Z2qLWV-Hj0ncUH-113" value="1" style="shape=partialRectangle;html=1;whiteSpace=wrap;connectable=0;overflow=hidden;fillColor=none;top=0;left=0;bottom=0;right=0;pointerEvents=1;fontSize=13;" vertex="1" parent="1qGrM2Z2qLWV-Hj0ncUH-110">
          <mxGeometry x="160" width="135" height="57" as="geometry">
            <mxRectangle width="135" height="57" as="alternateBounds" />
          </mxGeometry>
        </mxCell>
        <mxCell id="1qGrM2Z2qLWV-Hj0ncUH-114" value="&lt;span style=&quot;color: rgb(32, 33, 36); font-family: arial, sans-serif; font-size: 14px; font-style: normal; font-variant-ligatures: normal; font-variant-caps: normal; font-weight: 400; letter-spacing: normal; orphans: 2; text-align: left; text-indent: 0px; text-transform: none; widows: 2; word-spacing: 0px; -webkit-text-stroke-width: 0px; background-color: rgb(255, 255, 255); text-decoration-thickness: initial; text-decoration-style: initial; text-decoration-color: initial; float: none; display: inline !important;&quot;&gt;Amphitheatre Parkway&lt;/span&gt;" style="shape=partialRectangle;html=1;whiteSpace=wrap;connectable=0;overflow=hidden;fillColor=none;top=0;left=0;bottom=0;right=0;pointerEvents=1;fontSize=13;" vertex="1" parent="1qGrM2Z2qLWV-Hj0ncUH-110">
          <mxGeometry x="295" width="153" height="57" as="geometry">
            <mxRectangle width="153" height="57" as="alternateBounds" />
          </mxGeometry>
        </mxCell>
        <mxCell id="1qGrM2Z2qLWV-Hj0ncUH-118" value="&lt;span style=&quot;color: rgb(32, 33, 36); font-family: arial, sans-serif; font-size: 16px; text-align: left; background-color: rgb(255, 255, 255);&quot;&gt;Mountain View&lt;/span&gt;" style="shape=partialRectangle;html=1;whiteSpace=wrap;connectable=0;overflow=hidden;fillColor=none;top=0;left=0;bottom=0;right=0;pointerEvents=1;fontSize=13;" vertex="1" parent="1qGrM2Z2qLWV-Hj0ncUH-110">
          <mxGeometry x="448" width="119" height="57" as="geometry">
            <mxRectangle width="119" height="57" as="alternateBounds" />
          </mxGeometry>
        </mxCell>
        <mxCell id="1qGrM2Z2qLWV-Hj0ncUH-205" value="CALIFORNIA" style="shape=partialRectangle;html=1;whiteSpace=wrap;connectable=0;overflow=hidden;fillColor=none;top=0;left=0;bottom=0;right=0;pointerEvents=1;fontSize=13;" vertex="1" parent="1qGrM2Z2qLWV-Hj0ncUH-110">
          <mxGeometry x="567" width="124" height="57" as="geometry">
            <mxRectangle width="124" height="57" as="alternateBounds" />
          </mxGeometry>
        </mxCell>
        <mxCell id="1qGrM2Z2qLWV-Hj0ncUH-119" value="94043" style="shape=partialRectangle;html=1;whiteSpace=wrap;connectable=0;overflow=hidden;fillColor=none;top=0;left=0;bottom=0;right=0;pointerEvents=1;fontSize=13;" vertex="1" parent="1qGrM2Z2qLWV-Hj0ncUH-110">
          <mxGeometry x="691" width="153" height="57" as="geometry">
            <mxRectangle width="153" height="57" as="alternateBounds" />
          </mxGeometry>
        </mxCell>
        <mxCell id="1qGrM2Z2qLWV-Hj0ncUH-120" value="" style="shape=tableRow;horizontal=0;startSize=0;swimlaneHead=0;swimlaneBody=0;top=0;left=0;bottom=0;right=0;collapsible=0;dropTarget=0;fillColor=none;points=[[0,0.5],[1,0.5]];portConstraint=eastwest;fontSize=13;" vertex="1" parent="v1vIa1xV1tvnQ-AfuU4b-18">
          <mxGeometry y="115" width="844" height="58" as="geometry" />
        </mxCell>
        <mxCell id="1qGrM2Z2qLWV-Hj0ncUH-121" value="21" style="shape=partialRectangle;html=1;whiteSpace=wrap;connectable=0;overflow=hidden;fillColor=none;top=0;left=0;bottom=0;right=0;pointerEvents=1;fontSize=13;" vertex="1" parent="1qGrM2Z2qLWV-Hj0ncUH-120">
          <mxGeometry width="160" height="58" as="geometry">
            <mxRectangle width="160" height="58" as="alternateBounds" />
          </mxGeometry>
        </mxCell>
        <mxCell id="1qGrM2Z2qLWV-Hj0ncUH-123" value="2" style="shape=partialRectangle;html=1;whiteSpace=wrap;connectable=0;overflow=hidden;fillColor=none;top=0;left=0;bottom=0;right=0;pointerEvents=1;fontSize=13;" vertex="1" parent="1qGrM2Z2qLWV-Hj0ncUH-120">
          <mxGeometry x="160" width="135" height="58" as="geometry">
            <mxRectangle width="135" height="58" as="alternateBounds" />
          </mxGeometry>
        </mxCell>
        <mxCell id="1qGrM2Z2qLWV-Hj0ncUH-124" value="&lt;span style=&quot;color: rgb(32, 33, 36); font-family: arial, sans-serif; font-size: 14px; font-style: normal; font-variant-ligatures: normal; font-variant-caps: normal; font-weight: 400; letter-spacing: normal; orphans: 2; text-align: left; text-indent: 0px; text-transform: none; widows: 2; word-spacing: 0px; -webkit-text-stroke-width: 0px; background-color: rgb(255, 255, 255); text-decoration-thickness: initial; text-decoration-style: initial; text-decoration-color: initial; float: none; display: inline !important;&quot;&gt;Amphitheatre Parkway&lt;/span&gt;" style="shape=partialRectangle;html=1;whiteSpace=wrap;connectable=0;overflow=hidden;fillColor=none;top=0;left=0;bottom=0;right=0;pointerEvents=1;fontSize=13;" vertex="1" parent="1qGrM2Z2qLWV-Hj0ncUH-120">
          <mxGeometry x="295" width="153" height="58" as="geometry">
            <mxRectangle width="153" height="58" as="alternateBounds" />
          </mxGeometry>
        </mxCell>
        <mxCell id="1qGrM2Z2qLWV-Hj0ncUH-128" value="&lt;span style=&quot;color: rgb(32, 33, 36); font-family: arial, sans-serif; font-size: 16px; text-align: left; background-color: rgb(255, 255, 255);&quot;&gt;Mountain View&lt;/span&gt;" style="shape=partialRectangle;html=1;whiteSpace=wrap;connectable=0;overflow=hidden;fillColor=none;top=0;left=0;bottom=0;right=0;pointerEvents=1;fontSize=13;" vertex="1" parent="1qGrM2Z2qLWV-Hj0ncUH-120">
          <mxGeometry x="448" width="119" height="58" as="geometry">
            <mxRectangle width="119" height="58" as="alternateBounds" />
          </mxGeometry>
        </mxCell>
        <mxCell id="1qGrM2Z2qLWV-Hj0ncUH-206" value="&#xa;&lt;span style=&quot;color: rgb(0, 0, 0); font-family: Helvetica; font-size: 13px; font-style: normal; font-variant-ligatures: normal; font-variant-caps: normal; font-weight: 400; letter-spacing: normal; orphans: 2; text-align: center; text-indent: 0px; text-transform: none; widows: 2; word-spacing: 0px; -webkit-text-stroke-width: 0px; background-color: rgb(248, 249, 250); text-decoration-thickness: initial; text-decoration-style: initial; text-decoration-color: initial; float: none; display: inline !important;&quot;&gt;CALIFORNIA&lt;/span&gt;&#xa;&#xa;" style="shape=partialRectangle;html=1;whiteSpace=wrap;connectable=0;overflow=hidden;fillColor=none;top=0;left=0;bottom=0;right=0;pointerEvents=1;fontSize=13;" vertex="1" parent="1qGrM2Z2qLWV-Hj0ncUH-120">
          <mxGeometry x="567" width="124" height="58" as="geometry">
            <mxRectangle width="124" height="58" as="alternateBounds" />
          </mxGeometry>
        </mxCell>
        <mxCell id="1qGrM2Z2qLWV-Hj0ncUH-129" value="94043" style="shape=partialRectangle;html=1;whiteSpace=wrap;connectable=0;overflow=hidden;fillColor=none;top=0;left=0;bottom=0;right=0;pointerEvents=1;fontSize=13;" vertex="1" parent="1qGrM2Z2qLWV-Hj0ncUH-120">
          <mxGeometry x="691" width="153" height="58" as="geometry">
            <mxRectangle width="153" height="58" as="alternateBounds" />
          </mxGeometry>
        </mxCell>
        <mxCell id="1qGrM2Z2qLWV-Hj0ncUH-130" value="" style="shape=tableRow;horizontal=0;startSize=0;swimlaneHead=0;swimlaneBody=0;top=0;left=0;bottom=0;right=0;collapsible=0;dropTarget=0;fillColor=none;points=[[0,0.5],[1,0.5]];portConstraint=eastwest;fontSize=13;" vertex="1" parent="v1vIa1xV1tvnQ-AfuU4b-18">
          <mxGeometry y="173" width="844" height="57" as="geometry" />
        </mxCell>
        <mxCell id="1qGrM2Z2qLWV-Hj0ncUH-131" value="31" style="shape=partialRectangle;html=1;whiteSpace=wrap;connectable=0;overflow=hidden;fillColor=none;top=0;left=0;bottom=0;right=0;pointerEvents=1;fontSize=13;" vertex="1" parent="1qGrM2Z2qLWV-Hj0ncUH-130">
          <mxGeometry width="160" height="57" as="geometry">
            <mxRectangle width="160" height="57" as="alternateBounds" />
          </mxGeometry>
        </mxCell>
        <mxCell id="1qGrM2Z2qLWV-Hj0ncUH-133" value="3" style="shape=partialRectangle;html=1;whiteSpace=wrap;connectable=0;overflow=hidden;fillColor=none;top=0;left=0;bottom=0;right=0;pointerEvents=1;fontSize=13;" vertex="1" parent="1qGrM2Z2qLWV-Hj0ncUH-130">
          <mxGeometry x="160" width="135" height="57" as="geometry">
            <mxRectangle width="135" height="57" as="alternateBounds" />
          </mxGeometry>
        </mxCell>
        <mxCell id="1qGrM2Z2qLWV-Hj0ncUH-134" value="&lt;span style=&quot;color: rgb(32, 33, 36); font-family: arial, sans-serif; font-size: 14px; font-style: normal; font-variant-ligatures: normal; font-variant-caps: normal; font-weight: 400; letter-spacing: normal; orphans: 2; text-align: left; text-indent: 0px; text-transform: none; widows: 2; word-spacing: 0px; -webkit-text-stroke-width: 0px; background-color: rgb(255, 255, 255); text-decoration-thickness: initial; text-decoration-style: initial; text-decoration-color: initial; float: none; display: inline !important;&quot;&gt;Amphitheatre Parkway&lt;/span&gt;" style="shape=partialRectangle;html=1;whiteSpace=wrap;connectable=0;overflow=hidden;fillColor=none;top=0;left=0;bottom=0;right=0;pointerEvents=1;fontSize=13;" vertex="1" parent="1qGrM2Z2qLWV-Hj0ncUH-130">
          <mxGeometry x="295" width="153" height="57" as="geometry">
            <mxRectangle width="153" height="57" as="alternateBounds" />
          </mxGeometry>
        </mxCell>
        <mxCell id="1qGrM2Z2qLWV-Hj0ncUH-138" value="&lt;span style=&quot;color: rgb(32, 33, 36); font-family: arial, sans-serif; font-size: 16px; text-align: left; background-color: rgb(255, 255, 255);&quot;&gt;Mountain View&lt;/span&gt;" style="shape=partialRectangle;html=1;whiteSpace=wrap;connectable=0;overflow=hidden;fillColor=none;top=0;left=0;bottom=0;right=0;pointerEvents=1;fontSize=13;" vertex="1" parent="1qGrM2Z2qLWV-Hj0ncUH-130">
          <mxGeometry x="448" width="119" height="57" as="geometry">
            <mxRectangle width="119" height="57" as="alternateBounds" />
          </mxGeometry>
        </mxCell>
        <mxCell id="1qGrM2Z2qLWV-Hj0ncUH-207" value="&#xa;&lt;span style=&quot;color: rgb(0, 0, 0); font-family: Helvetica; font-size: 13px; font-style: normal; font-variant-ligatures: normal; font-variant-caps: normal; font-weight: 400; letter-spacing: normal; orphans: 2; text-align: center; text-indent: 0px; text-transform: none; widows: 2; word-spacing: 0px; -webkit-text-stroke-width: 0px; background-color: rgb(248, 249, 250); text-decoration-thickness: initial; text-decoration-style: initial; text-decoration-color: initial; float: none; display: inline !important;&quot;&gt;CALIFORNIA&lt;/span&gt;&#xa;&#xa;" style="shape=partialRectangle;html=1;whiteSpace=wrap;connectable=0;overflow=hidden;fillColor=none;top=0;left=0;bottom=0;right=0;pointerEvents=1;fontSize=13;" vertex="1" parent="1qGrM2Z2qLWV-Hj0ncUH-130">
          <mxGeometry x="567" width="124" height="57" as="geometry">
            <mxRectangle width="124" height="57" as="alternateBounds" />
          </mxGeometry>
        </mxCell>
        <mxCell id="1qGrM2Z2qLWV-Hj0ncUH-139" value="94043" style="shape=partialRectangle;html=1;whiteSpace=wrap;connectable=0;overflow=hidden;fillColor=none;top=0;left=0;bottom=0;right=0;pointerEvents=1;fontSize=13;" vertex="1" parent="1qGrM2Z2qLWV-Hj0ncUH-130">
          <mxGeometry x="691" width="153" height="57" as="geometry">
            <mxRectangle width="153" height="57" as="alternateBounds" />
          </mxGeometry>
        </mxCell>
        <mxCell id="v1vIa1xV1tvnQ-AfuU4b-36" value="" style="shape=table;startSize=0;container=1;collapsible=0;childLayout=tableLayout;fontSize=13;" parent="1" vertex="1">
          <mxGeometry x="4" y="480" width="580" height="160" as="geometry" />
        </mxCell>
        <mxCell id="v1vIa1xV1tvnQ-AfuU4b-37" value="" style="shape=tableRow;horizontal=0;startSize=0;swimlaneHead=0;swimlaneBody=0;top=0;left=0;bottom=0;right=0;collapsible=0;dropTarget=0;fillColor=none;points=[[0,0.5],[1,0.5]];portConstraint=eastwest;fontSize=13;" parent="v1vIa1xV1tvnQ-AfuU4b-36" vertex="1">
          <mxGeometry width="580" height="40" as="geometry" />
        </mxCell>
        <mxCell id="v1vIa1xV1tvnQ-AfuU4b-38" value="&lt;u&gt;&lt;b&gt;DEP_NUMBER&lt;/b&gt;&lt;/u&gt;" style="shape=partialRectangle;html=1;whiteSpace=wrap;connectable=0;overflow=hidden;fillColor=none;top=0;left=0;bottom=0;right=0;pointerEvents=1;fontSize=13;" parent="v1vIa1xV1tvnQ-AfuU4b-37" vertex="1">
          <mxGeometry width="130" height="40" as="geometry">
            <mxRectangle width="130" height="40" as="alternateBounds" />
          </mxGeometry>
        </mxCell>
        <mxCell id="v1vIa1xV1tvnQ-AfuU4b-39" value="SSN_MANAGER" style="shape=partialRectangle;html=1;whiteSpace=wrap;connectable=0;overflow=hidden;fillColor=none;top=0;left=0;bottom=0;right=0;pointerEvents=1;fontSize=13;" parent="v1vIa1xV1tvnQ-AfuU4b-37" vertex="1">
          <mxGeometry x="130" width="120" height="40" as="geometry">
            <mxRectangle width="120" height="40" as="alternateBounds" />
          </mxGeometry>
        </mxCell>
        <mxCell id="v1vIa1xV1tvnQ-AfuU4b-40" value="DEP_NAME" style="shape=partialRectangle;html=1;whiteSpace=wrap;connectable=0;overflow=hidden;fillColor=none;top=0;left=0;bottom=0;right=0;pointerEvents=1;fontSize=13;" parent="v1vIa1xV1tvnQ-AfuU4b-37" vertex="1">
          <mxGeometry x="250" width="150" height="40" as="geometry">
            <mxRectangle width="150" height="40" as="alternateBounds" />
          </mxGeometry>
        </mxCell>
        <mxCell id="v1vIa1xV1tvnQ-AfuU4b-41" value="SSN_MNGR_START_DATE" style="shape=partialRectangle;html=1;whiteSpace=wrap;connectable=0;overflow=hidden;fillColor=none;top=0;left=0;bottom=0;right=0;pointerEvents=1;fontSize=13;" parent="v1vIa1xV1tvnQ-AfuU4b-37" vertex="1">
          <mxGeometry x="400" width="180" height="40" as="geometry">
            <mxRectangle width="180" height="40" as="alternateBounds" />
          </mxGeometry>
        </mxCell>
        <mxCell id="1qGrM2Z2qLWV-Hj0ncUH-80" value="" style="shape=tableRow;horizontal=0;startSize=0;swimlaneHead=0;swimlaneBody=0;top=0;left=0;bottom=0;right=0;collapsible=0;dropTarget=0;fillColor=none;points=[[0,0.5],[1,0.5]];portConstraint=eastwest;fontSize=13;" vertex="1" parent="v1vIa1xV1tvnQ-AfuU4b-36">
          <mxGeometry y="40" width="580" height="40" as="geometry" />
        </mxCell>
        <mxCell id="1qGrM2Z2qLWV-Hj0ncUH-81" value="1" style="shape=partialRectangle;html=1;whiteSpace=wrap;connectable=0;overflow=hidden;fillColor=none;top=0;left=0;bottom=0;right=0;pointerEvents=1;fontSize=13;" vertex="1" parent="1qGrM2Z2qLWV-Hj0ncUH-80">
          <mxGeometry width="130" height="40" as="geometry">
            <mxRectangle width="130" height="40" as="alternateBounds" />
          </mxGeometry>
        </mxCell>
        <mxCell id="1qGrM2Z2qLWV-Hj0ncUH-82" value="215" style="shape=partialRectangle;html=1;whiteSpace=wrap;connectable=0;overflow=hidden;fillColor=none;top=0;left=0;bottom=0;right=0;pointerEvents=1;fontSize=13;" vertex="1" parent="1qGrM2Z2qLWV-Hj0ncUH-80">
          <mxGeometry x="130" width="120" height="40" as="geometry">
            <mxRectangle width="120" height="40" as="alternateBounds" />
          </mxGeometry>
        </mxCell>
        <mxCell id="1qGrM2Z2qLWV-Hj0ncUH-83" value="MARKETING" style="shape=partialRectangle;html=1;whiteSpace=wrap;connectable=0;overflow=hidden;fillColor=none;top=0;left=0;bottom=0;right=0;pointerEvents=1;fontSize=13;" vertex="1" parent="1qGrM2Z2qLWV-Hj0ncUH-80">
          <mxGeometry x="250" width="150" height="40" as="geometry">
            <mxRectangle width="150" height="40" as="alternateBounds" />
          </mxGeometry>
        </mxCell>
        <mxCell id="1qGrM2Z2qLWV-Hj0ncUH-84" value="2 JANUARY 2015" style="shape=partialRectangle;html=1;whiteSpace=wrap;connectable=0;overflow=hidden;fillColor=none;top=0;left=0;bottom=0;right=0;pointerEvents=1;fontSize=13;" vertex="1" parent="1qGrM2Z2qLWV-Hj0ncUH-80">
          <mxGeometry x="400" width="180" height="40" as="geometry">
            <mxRectangle width="180" height="40" as="alternateBounds" />
          </mxGeometry>
        </mxCell>
        <mxCell id="1qGrM2Z2qLWV-Hj0ncUH-85" value="" style="shape=tableRow;horizontal=0;startSize=0;swimlaneHead=0;swimlaneBody=0;top=0;left=0;bottom=0;right=0;collapsible=0;dropTarget=0;fillColor=none;points=[[0,0.5],[1,0.5]];portConstraint=eastwest;fontSize=13;" vertex="1" parent="v1vIa1xV1tvnQ-AfuU4b-36">
          <mxGeometry y="80" width="580" height="40" as="geometry" />
        </mxCell>
        <mxCell id="1qGrM2Z2qLWV-Hj0ncUH-86" value="2" style="shape=partialRectangle;html=1;whiteSpace=wrap;connectable=0;overflow=hidden;fillColor=none;top=0;left=0;bottom=0;right=0;pointerEvents=1;fontSize=13;" vertex="1" parent="1qGrM2Z2qLWV-Hj0ncUH-85">
          <mxGeometry width="130" height="40" as="geometry">
            <mxRectangle width="130" height="40" as="alternateBounds" />
          </mxGeometry>
        </mxCell>
        <mxCell id="1qGrM2Z2qLWV-Hj0ncUH-87" value="150" style="shape=partialRectangle;html=1;whiteSpace=wrap;connectable=0;overflow=hidden;fillColor=none;top=0;left=0;bottom=0;right=0;pointerEvents=1;fontSize=13;" vertex="1" parent="1qGrM2Z2qLWV-Hj0ncUH-85">
          <mxGeometry x="130" width="120" height="40" as="geometry">
            <mxRectangle width="120" height="40" as="alternateBounds" />
          </mxGeometry>
        </mxCell>
        <mxCell id="1qGrM2Z2qLWV-Hj0ncUH-88" value="HRD" style="shape=partialRectangle;html=1;whiteSpace=wrap;connectable=0;overflow=hidden;fillColor=none;top=0;left=0;bottom=0;right=0;pointerEvents=1;fontSize=13;" vertex="1" parent="1qGrM2Z2qLWV-Hj0ncUH-85">
          <mxGeometry x="250" width="150" height="40" as="geometry">
            <mxRectangle width="150" height="40" as="alternateBounds" />
          </mxGeometry>
        </mxCell>
        <mxCell id="1qGrM2Z2qLWV-Hj0ncUH-89" value="3 JANUARY 2015" style="shape=partialRectangle;html=1;whiteSpace=wrap;connectable=0;overflow=hidden;fillColor=none;top=0;left=0;bottom=0;right=0;pointerEvents=1;fontSize=13;" vertex="1" parent="1qGrM2Z2qLWV-Hj0ncUH-85">
          <mxGeometry x="400" width="180" height="40" as="geometry">
            <mxRectangle width="180" height="40" as="alternateBounds" />
          </mxGeometry>
        </mxCell>
        <mxCell id="1qGrM2Z2qLWV-Hj0ncUH-90" value="" style="shape=tableRow;horizontal=0;startSize=0;swimlaneHead=0;swimlaneBody=0;top=0;left=0;bottom=0;right=0;collapsible=0;dropTarget=0;fillColor=none;points=[[0,0.5],[1,0.5]];portConstraint=eastwest;fontSize=13;" vertex="1" parent="v1vIa1xV1tvnQ-AfuU4b-36">
          <mxGeometry y="120" width="580" height="40" as="geometry" />
        </mxCell>
        <mxCell id="1qGrM2Z2qLWV-Hj0ncUH-91" value="3" style="shape=partialRectangle;html=1;whiteSpace=wrap;connectable=0;overflow=hidden;fillColor=none;top=0;left=0;bottom=0;right=0;pointerEvents=1;fontSize=13;" vertex="1" parent="1qGrM2Z2qLWV-Hj0ncUH-90">
          <mxGeometry width="130" height="40" as="geometry">
            <mxRectangle width="130" height="40" as="alternateBounds" />
          </mxGeometry>
        </mxCell>
        <mxCell id="1qGrM2Z2qLWV-Hj0ncUH-92" value="234" style="shape=partialRectangle;html=1;whiteSpace=wrap;connectable=0;overflow=hidden;fillColor=none;top=0;left=0;bottom=0;right=0;pointerEvents=1;fontSize=13;" vertex="1" parent="1qGrM2Z2qLWV-Hj0ncUH-90">
          <mxGeometry x="130" width="120" height="40" as="geometry">
            <mxRectangle width="120" height="40" as="alternateBounds" />
          </mxGeometry>
        </mxCell>
        <mxCell id="1qGrM2Z2qLWV-Hj0ncUH-93" value="FINANCE" style="shape=partialRectangle;html=1;whiteSpace=wrap;connectable=0;overflow=hidden;fillColor=none;top=0;left=0;bottom=0;right=0;pointerEvents=1;fontSize=13;" vertex="1" parent="1qGrM2Z2qLWV-Hj0ncUH-90">
          <mxGeometry x="250" width="150" height="40" as="geometry">
            <mxRectangle width="150" height="40" as="alternateBounds" />
          </mxGeometry>
        </mxCell>
        <mxCell id="1qGrM2Z2qLWV-Hj0ncUH-94" value="5 JANUARY 2015" style="shape=partialRectangle;html=1;whiteSpace=wrap;connectable=0;overflow=hidden;fillColor=none;top=0;left=0;bottom=0;right=0;pointerEvents=1;fontSize=13;" vertex="1" parent="1qGrM2Z2qLWV-Hj0ncUH-90">
          <mxGeometry x="400" width="180" height="40" as="geometry">
            <mxRectangle width="180" height="40" as="alternateBounds" />
          </mxGeometry>
        </mxCell>
        <mxCell id="v1vIa1xV1tvnQ-AfuU4b-42" value="&lt;font style=&quot;font-size: 19px;&quot;&gt;&lt;b&gt;EMPLOYEE&lt;/b&gt;&lt;/font&gt;" style="text;html=1;align=center;verticalAlign=middle;resizable=0;points=[];autosize=1;strokeColor=none;fillColor=none;fontSize=13;" parent="1" vertex="1">
          <mxGeometry x="4" y="50" width="130" height="40" as="geometry" />
        </mxCell>
        <mxCell id="v1vIa1xV1tvnQ-AfuU4b-43" value="&lt;font style=&quot;font-size: 19px;&quot;&gt;&lt;b&gt;DEPARTMENT&lt;/b&gt;&lt;/font&gt;" style="text;html=1;align=center;verticalAlign=middle;resizable=0;points=[];autosize=1;strokeColor=none;fillColor=none;fontSize=13;" parent="1" vertex="1">
          <mxGeometry y="440" width="150" height="40" as="geometry" />
        </mxCell>
        <mxCell id="v1vIa1xV1tvnQ-AfuU4b-44" value="&lt;span style=&quot;font-size: 19px;&quot;&gt;&lt;b&gt;LOCATION&lt;/b&gt;&lt;/span&gt;" style="text;html=1;align=center;verticalAlign=middle;resizable=0;points=[];autosize=1;strokeColor=none;fillColor=none;fontSize=13;" parent="1" vertex="1">
          <mxGeometry x="4" y="720" width="120" height="40" as="geometry" />
        </mxCell>
        <mxCell id="v1vIa1xV1tvnQ-AfuU4b-45" value="&lt;span style=&quot;font-size: 19px;&quot;&gt;&lt;b&gt;PROJECT&lt;/b&gt;&lt;/span&gt;" style="text;html=1;align=center;verticalAlign=middle;resizable=0;points=[];autosize=1;strokeColor=none;fillColor=none;fontSize=13;" parent="1" vertex="1">
          <mxGeometry y="1080" width="110" height="40" as="geometry" />
        </mxCell>
        <mxCell id="v1vIa1xV1tvnQ-AfuU4b-46" value="" style="shape=table;startSize=0;container=1;collapsible=0;childLayout=tableLayout;fontSize=19;" parent="1" vertex="1">
          <mxGeometry x="4" y="1120" width="630" height="159.99999999999977" as="geometry" />
        </mxCell>
        <mxCell id="v1vIa1xV1tvnQ-AfuU4b-47" value="" style="shape=tableRow;horizontal=0;startSize=0;swimlaneHead=0;swimlaneBody=0;top=0;left=0;bottom=0;right=0;collapsible=0;dropTarget=0;fillColor=none;points=[[0,0.5],[1,0.5]];portConstraint=eastwest;fontSize=19;" parent="v1vIa1xV1tvnQ-AfuU4b-46" vertex="1">
          <mxGeometry width="630" height="40" as="geometry" />
        </mxCell>
        <mxCell id="v1vIa1xV1tvnQ-AfuU4b-48" value="&lt;font style=&quot;font-size: 13px;&quot;&gt;&lt;b&gt;&lt;u&gt;ID_PROJECT&lt;/u&gt;&lt;/b&gt;&lt;/font&gt;" style="shape=partialRectangle;html=1;whiteSpace=wrap;connectable=0;overflow=hidden;fillColor=none;top=0;left=0;bottom=0;right=0;pointerEvents=1;fontSize=19;" parent="v1vIa1xV1tvnQ-AfuU4b-47" vertex="1">
          <mxGeometry width="156" height="40" as="geometry">
            <mxRectangle width="156" height="40" as="alternateBounds" />
          </mxGeometry>
        </mxCell>
        <mxCell id="v1vIa1xV1tvnQ-AfuU4b-49" value="&lt;font style=&quot;font-size: 13px;&quot;&gt;DEP_NUMBER&lt;/font&gt;" style="shape=partialRectangle;html=1;whiteSpace=wrap;connectable=0;overflow=hidden;fillColor=none;top=0;left=0;bottom=0;right=0;pointerEvents=1;fontSize=19;" parent="v1vIa1xV1tvnQ-AfuU4b-47" vertex="1">
          <mxGeometry x="156" width="159" height="40" as="geometry">
            <mxRectangle width="159" height="40" as="alternateBounds" />
          </mxGeometry>
        </mxCell>
        <mxCell id="v1vIa1xV1tvnQ-AfuU4b-50" value="&lt;font style=&quot;font-size: 13px;&quot;&gt;PROJECT_NAME&lt;/font&gt;" style="shape=partialRectangle;html=1;whiteSpace=wrap;connectable=0;overflow=hidden;fillColor=none;top=0;left=0;bottom=0;right=0;pointerEvents=1;fontSize=19;" parent="v1vIa1xV1tvnQ-AfuU4b-47" vertex="1">
          <mxGeometry x="315" width="177" height="40" as="geometry">
            <mxRectangle width="177" height="40" as="alternateBounds" />
          </mxGeometry>
        </mxCell>
        <mxCell id="v1vIa1xV1tvnQ-AfuU4b-51" value="&lt;font style=&quot;font-size: 13px;&quot;&gt;LOCATION&lt;/font&gt;" style="shape=partialRectangle;html=1;whiteSpace=wrap;connectable=0;overflow=hidden;fillColor=none;top=0;left=0;bottom=0;right=0;pointerEvents=1;fontSize=19;" parent="v1vIa1xV1tvnQ-AfuU4b-47" vertex="1">
          <mxGeometry x="492" width="138" height="40" as="geometry">
            <mxRectangle width="138" height="40" as="alternateBounds" />
          </mxGeometry>
        </mxCell>
        <mxCell id="1qGrM2Z2qLWV-Hj0ncUH-95" value="" style="shape=tableRow;horizontal=0;startSize=0;swimlaneHead=0;swimlaneBody=0;top=0;left=0;bottom=0;right=0;collapsible=0;dropTarget=0;fillColor=none;points=[[0,0.5],[1,0.5]];portConstraint=eastwest;fontSize=19;" vertex="1" parent="v1vIa1xV1tvnQ-AfuU4b-46">
          <mxGeometry y="40" width="630" height="40" as="geometry" />
        </mxCell>
        <mxCell id="1qGrM2Z2qLWV-Hj0ncUH-96" value="&lt;font style=&quot;font-size: 13px;&quot;&gt;123&lt;/font&gt;" style="shape=partialRectangle;html=1;whiteSpace=wrap;connectable=0;overflow=hidden;fillColor=none;top=0;left=0;bottom=0;right=0;pointerEvents=1;fontSize=19;" vertex="1" parent="1qGrM2Z2qLWV-Hj0ncUH-95">
          <mxGeometry width="156" height="40" as="geometry">
            <mxRectangle width="156" height="40" as="alternateBounds" />
          </mxGeometry>
        </mxCell>
        <mxCell id="1qGrM2Z2qLWV-Hj0ncUH-97" value="&lt;font style=&quot;font-size: 13px;&quot;&gt;1&lt;/font&gt;" style="shape=partialRectangle;html=1;whiteSpace=wrap;connectable=0;overflow=hidden;fillColor=none;top=0;left=0;bottom=0;right=0;pointerEvents=1;fontSize=19;" vertex="1" parent="1qGrM2Z2qLWV-Hj0ncUH-95">
          <mxGeometry x="156" width="159" height="40" as="geometry">
            <mxRectangle width="159" height="40" as="alternateBounds" />
          </mxGeometry>
        </mxCell>
        <mxCell id="1qGrM2Z2qLWV-Hj0ncUH-98" value="&lt;font style=&quot;font-size: 13px;&quot;&gt;frozen_1&lt;/font&gt;" style="shape=partialRectangle;html=1;whiteSpace=wrap;connectable=0;overflow=hidden;fillColor=none;top=0;left=0;bottom=0;right=0;pointerEvents=1;fontSize=19;" vertex="1" parent="1qGrM2Z2qLWV-Hj0ncUH-95">
          <mxGeometry x="315" width="177" height="40" as="geometry">
            <mxRectangle width="177" height="40" as="alternateBounds" />
          </mxGeometry>
        </mxCell>
        <mxCell id="1qGrM2Z2qLWV-Hj0ncUH-99" value="&lt;font style=&quot;font-size: 13px;&quot;&gt;CHICAGO&lt;/font&gt;" style="shape=partialRectangle;html=1;whiteSpace=wrap;connectable=0;overflow=hidden;fillColor=none;top=0;left=0;bottom=0;right=0;pointerEvents=1;fontSize=19;" vertex="1" parent="1qGrM2Z2qLWV-Hj0ncUH-95">
          <mxGeometry x="492" width="138" height="40" as="geometry">
            <mxRectangle width="138" height="40" as="alternateBounds" />
          </mxGeometry>
        </mxCell>
        <mxCell id="1qGrM2Z2qLWV-Hj0ncUH-100" value="" style="shape=tableRow;horizontal=0;startSize=0;swimlaneHead=0;swimlaneBody=0;top=0;left=0;bottom=0;right=0;collapsible=0;dropTarget=0;fillColor=none;points=[[0,0.5],[1,0.5]];portConstraint=eastwest;fontSize=19;" vertex="1" parent="v1vIa1xV1tvnQ-AfuU4b-46">
          <mxGeometry y="80" width="630" height="40" as="geometry" />
        </mxCell>
        <mxCell id="1qGrM2Z2qLWV-Hj0ncUH-101" value="&lt;font style=&quot;font-size: 13px;&quot;&gt;456&lt;/font&gt;" style="shape=partialRectangle;html=1;whiteSpace=wrap;connectable=0;overflow=hidden;fillColor=none;top=0;left=0;bottom=0;right=0;pointerEvents=1;fontSize=19;" vertex="1" parent="1qGrM2Z2qLWV-Hj0ncUH-100">
          <mxGeometry width="156" height="40" as="geometry">
            <mxRectangle width="156" height="40" as="alternateBounds" />
          </mxGeometry>
        </mxCell>
        <mxCell id="1qGrM2Z2qLWV-Hj0ncUH-102" value="&lt;font style=&quot;font-size: 13px;&quot;&gt;2&lt;/font&gt;" style="shape=partialRectangle;html=1;whiteSpace=wrap;connectable=0;overflow=hidden;fillColor=none;top=0;left=0;bottom=0;right=0;pointerEvents=1;fontSize=19;" vertex="1" parent="1qGrM2Z2qLWV-Hj0ncUH-100">
          <mxGeometry x="156" width="159" height="40" as="geometry">
            <mxRectangle width="159" height="40" as="alternateBounds" />
          </mxGeometry>
        </mxCell>
        <mxCell id="1qGrM2Z2qLWV-Hj0ncUH-103" value="&lt;span style=&quot;font-size: 13px;&quot;&gt;Arise_wolverine&lt;/span&gt;" style="shape=partialRectangle;html=1;whiteSpace=wrap;connectable=0;overflow=hidden;fillColor=none;top=0;left=0;bottom=0;right=0;pointerEvents=1;fontSize=19;" vertex="1" parent="1qGrM2Z2qLWV-Hj0ncUH-100">
          <mxGeometry x="315" width="177" height="40" as="geometry">
            <mxRectangle width="177" height="40" as="alternateBounds" />
          </mxGeometry>
        </mxCell>
        <mxCell id="1qGrM2Z2qLWV-Hj0ncUH-104" value="&lt;font style=&quot;font-size: 13px;&quot;&gt;AUSTIN&lt;/font&gt;" style="shape=partialRectangle;html=1;whiteSpace=wrap;connectable=0;overflow=hidden;fillColor=none;top=0;left=0;bottom=0;right=0;pointerEvents=1;fontSize=19;" vertex="1" parent="1qGrM2Z2qLWV-Hj0ncUH-100">
          <mxGeometry x="492" width="138" height="40" as="geometry">
            <mxRectangle width="138" height="40" as="alternateBounds" />
          </mxGeometry>
        </mxCell>
        <mxCell id="1qGrM2Z2qLWV-Hj0ncUH-105" value="" style="shape=tableRow;horizontal=0;startSize=0;swimlaneHead=0;swimlaneBody=0;top=0;left=0;bottom=0;right=0;collapsible=0;dropTarget=0;fillColor=none;points=[[0,0.5],[1,0.5]];portConstraint=eastwest;fontSize=19;" vertex="1" parent="v1vIa1xV1tvnQ-AfuU4b-46">
          <mxGeometry y="120" width="630" height="40" as="geometry" />
        </mxCell>
        <mxCell id="1qGrM2Z2qLWV-Hj0ncUH-106" value="&lt;font style=&quot;font-size: 13px;&quot;&gt;789&lt;/font&gt;" style="shape=partialRectangle;html=1;whiteSpace=wrap;connectable=0;overflow=hidden;fillColor=none;top=0;left=0;bottom=0;right=0;pointerEvents=1;fontSize=19;" vertex="1" parent="1qGrM2Z2qLWV-Hj0ncUH-105">
          <mxGeometry width="156" height="40" as="geometry">
            <mxRectangle width="156" height="40" as="alternateBounds" />
          </mxGeometry>
        </mxCell>
        <mxCell id="1qGrM2Z2qLWV-Hj0ncUH-107" value="&lt;font style=&quot;font-size: 13px;&quot;&gt;3&lt;/font&gt;" style="shape=partialRectangle;html=1;whiteSpace=wrap;connectable=0;overflow=hidden;fillColor=none;top=0;left=0;bottom=0;right=0;pointerEvents=1;fontSize=19;" vertex="1" parent="1qGrM2Z2qLWV-Hj0ncUH-105">
          <mxGeometry x="156" width="159" height="40" as="geometry">
            <mxRectangle width="159" height="40" as="alternateBounds" />
          </mxGeometry>
        </mxCell>
        <mxCell id="1qGrM2Z2qLWV-Hj0ncUH-108" value="&lt;font style=&quot;font-size: 13px;&quot;&gt;avengers_LETSGOOO&lt;/font&gt;" style="shape=partialRectangle;html=1;whiteSpace=wrap;connectable=0;overflow=hidden;fillColor=none;top=0;left=0;bottom=0;right=0;pointerEvents=1;fontSize=19;" vertex="1" parent="1qGrM2Z2qLWV-Hj0ncUH-105">
          <mxGeometry x="315" width="177" height="40" as="geometry">
            <mxRectangle width="177" height="40" as="alternateBounds" />
          </mxGeometry>
        </mxCell>
        <mxCell id="1qGrM2Z2qLWV-Hj0ncUH-109" value="&lt;font style=&quot;font-size: 13px;&quot;&gt;BOSTON&lt;/font&gt;" style="shape=partialRectangle;html=1;whiteSpace=wrap;connectable=0;overflow=hidden;fillColor=none;top=0;left=0;bottom=0;right=0;pointerEvents=1;fontSize=19;" vertex="1" parent="1qGrM2Z2qLWV-Hj0ncUH-105">
          <mxGeometry x="492" width="138" height="40" as="geometry">
            <mxRectangle width="138" height="40" as="alternateBounds" />
          </mxGeometry>
        </mxCell>
        <mxCell id="v1vIa1xV1tvnQ-AfuU4b-59" value="&lt;span style=&quot;font-size: 19px;&quot;&gt;&lt;b&gt;WORKS_ON&lt;/b&gt;&lt;/span&gt;" style="text;html=1;align=center;verticalAlign=middle;resizable=0;points=[];autosize=1;strokeColor=none;fillColor=none;fontSize=13;" parent="1" vertex="1">
          <mxGeometry y="1330" width="140" height="40" as="geometry" />
        </mxCell>
        <mxCell id="v1vIa1xV1tvnQ-AfuU4b-66" value="" style="shape=table;startSize=0;container=1;collapsible=0;childLayout=tableLayout;fontSize=13;" parent="1" vertex="1">
          <mxGeometry x="4" y="1370" width="310" height="200" as="geometry" />
        </mxCell>
        <mxCell id="v1vIa1xV1tvnQ-AfuU4b-67" value="" style="shape=tableRow;horizontal=0;startSize=0;swimlaneHead=0;swimlaneBody=0;top=0;left=0;bottom=0;right=0;collapsible=0;dropTarget=0;fillColor=none;points=[[0,0.5],[1,0.5]];portConstraint=eastwest;fontSize=13;" parent="v1vIa1xV1tvnQ-AfuU4b-66" vertex="1">
          <mxGeometry width="310" height="50" as="geometry" />
        </mxCell>
        <mxCell id="v1vIa1xV1tvnQ-AfuU4b-68" value="&lt;b&gt;&lt;u&gt;SSN&lt;/u&gt;&lt;/b&gt;" style="shape=partialRectangle;html=1;whiteSpace=wrap;connectable=0;overflow=hidden;fillColor=none;top=0;left=0;bottom=0;right=0;pointerEvents=1;fontSize=13;" parent="v1vIa1xV1tvnQ-AfuU4b-67" vertex="1">
          <mxGeometry width="99" height="50" as="geometry">
            <mxRectangle width="99" height="50" as="alternateBounds" />
          </mxGeometry>
        </mxCell>
        <mxCell id="v1vIa1xV1tvnQ-AfuU4b-69" value="&lt;b&gt;&lt;u&gt;ID_PROJECT&lt;/u&gt;&lt;/b&gt;" style="shape=partialRectangle;html=1;whiteSpace=wrap;connectable=0;overflow=hidden;fillColor=none;top=0;left=0;bottom=0;right=0;pointerEvents=1;fontSize=13;" parent="v1vIa1xV1tvnQ-AfuU4b-67" vertex="1">
          <mxGeometry x="99" width="112" height="50" as="geometry">
            <mxRectangle width="112" height="50" as="alternateBounds" />
          </mxGeometry>
        </mxCell>
        <mxCell id="v1vIa1xV1tvnQ-AfuU4b-70" value="HOURS" style="shape=partialRectangle;html=1;whiteSpace=wrap;connectable=0;overflow=hidden;fillColor=none;top=0;left=0;bottom=0;right=0;pointerEvents=1;fontSize=13;" parent="v1vIa1xV1tvnQ-AfuU4b-67" vertex="1">
          <mxGeometry x="211" width="99" height="50" as="geometry">
            <mxRectangle width="99" height="50" as="alternateBounds" />
          </mxGeometry>
        </mxCell>
        <mxCell id="1qGrM2Z2qLWV-Hj0ncUH-145" value="" style="shape=tableRow;horizontal=0;startSize=0;swimlaneHead=0;swimlaneBody=0;top=0;left=0;bottom=0;right=0;collapsible=0;dropTarget=0;fillColor=none;points=[[0,0.5],[1,0.5]];portConstraint=eastwest;fontSize=13;" vertex="1" parent="v1vIa1xV1tvnQ-AfuU4b-66">
          <mxGeometry y="50" width="310" height="50" as="geometry" />
        </mxCell>
        <mxCell id="1qGrM2Z2qLWV-Hj0ncUH-146" value="215" style="shape=partialRectangle;html=1;whiteSpace=wrap;connectable=0;overflow=hidden;fillColor=none;top=0;left=0;bottom=0;right=0;pointerEvents=1;fontSize=13;" vertex="1" parent="1qGrM2Z2qLWV-Hj0ncUH-145">
          <mxGeometry width="99" height="50" as="geometry">
            <mxRectangle width="99" height="50" as="alternateBounds" />
          </mxGeometry>
        </mxCell>
        <mxCell id="1qGrM2Z2qLWV-Hj0ncUH-147" value="123" style="shape=partialRectangle;html=1;whiteSpace=wrap;connectable=0;overflow=hidden;fillColor=none;top=0;left=0;bottom=0;right=0;pointerEvents=1;fontSize=13;" vertex="1" parent="1qGrM2Z2qLWV-Hj0ncUH-145">
          <mxGeometry x="99" width="112" height="50" as="geometry">
            <mxRectangle width="112" height="50" as="alternateBounds" />
          </mxGeometry>
        </mxCell>
        <mxCell id="1qGrM2Z2qLWV-Hj0ncUH-148" value="8" style="shape=partialRectangle;html=1;whiteSpace=wrap;connectable=0;overflow=hidden;fillColor=none;top=0;left=0;bottom=0;right=0;pointerEvents=1;fontSize=13;" vertex="1" parent="1qGrM2Z2qLWV-Hj0ncUH-145">
          <mxGeometry x="211" width="99" height="50" as="geometry">
            <mxRectangle width="99" height="50" as="alternateBounds" />
          </mxGeometry>
        </mxCell>
        <mxCell id="1qGrM2Z2qLWV-Hj0ncUH-158" value="" style="shape=tableRow;horizontal=0;startSize=0;swimlaneHead=0;swimlaneBody=0;top=0;left=0;bottom=0;right=0;collapsible=0;dropTarget=0;fillColor=none;points=[[0,0.5],[1,0.5]];portConstraint=eastwest;fontSize=13;" vertex="1" parent="v1vIa1xV1tvnQ-AfuU4b-66">
          <mxGeometry y="100" width="310" height="50" as="geometry" />
        </mxCell>
        <mxCell id="1qGrM2Z2qLWV-Hj0ncUH-159" value="150" style="shape=partialRectangle;html=1;whiteSpace=wrap;connectable=0;overflow=hidden;fillColor=none;top=0;left=0;bottom=0;right=0;pointerEvents=1;fontSize=13;" vertex="1" parent="1qGrM2Z2qLWV-Hj0ncUH-158">
          <mxGeometry width="99" height="50" as="geometry">
            <mxRectangle width="99" height="50" as="alternateBounds" />
          </mxGeometry>
        </mxCell>
        <mxCell id="1qGrM2Z2qLWV-Hj0ncUH-160" value="456" style="shape=partialRectangle;html=1;whiteSpace=wrap;connectable=0;overflow=hidden;fillColor=none;top=0;left=0;bottom=0;right=0;pointerEvents=1;fontSize=13;" vertex="1" parent="1qGrM2Z2qLWV-Hj0ncUH-158">
          <mxGeometry x="99" width="112" height="50" as="geometry">
            <mxRectangle width="112" height="50" as="alternateBounds" />
          </mxGeometry>
        </mxCell>
        <mxCell id="1qGrM2Z2qLWV-Hj0ncUH-161" value="8" style="shape=partialRectangle;html=1;whiteSpace=wrap;connectable=0;overflow=hidden;fillColor=none;top=0;left=0;bottom=0;right=0;pointerEvents=1;fontSize=13;" vertex="1" parent="1qGrM2Z2qLWV-Hj0ncUH-158">
          <mxGeometry x="211" width="99" height="50" as="geometry">
            <mxRectangle width="99" height="50" as="alternateBounds" />
          </mxGeometry>
        </mxCell>
        <mxCell id="1qGrM2Z2qLWV-Hj0ncUH-162" value="" style="shape=tableRow;horizontal=0;startSize=0;swimlaneHead=0;swimlaneBody=0;top=0;left=0;bottom=0;right=0;collapsible=0;dropTarget=0;fillColor=none;points=[[0,0.5],[1,0.5]];portConstraint=eastwest;fontSize=13;" vertex="1" parent="v1vIa1xV1tvnQ-AfuU4b-66">
          <mxGeometry y="150" width="310" height="50" as="geometry" />
        </mxCell>
        <mxCell id="1qGrM2Z2qLWV-Hj0ncUH-163" value="234" style="shape=partialRectangle;html=1;whiteSpace=wrap;connectable=0;overflow=hidden;fillColor=none;top=0;left=0;bottom=0;right=0;pointerEvents=1;fontSize=13;" vertex="1" parent="1qGrM2Z2qLWV-Hj0ncUH-162">
          <mxGeometry width="99" height="50" as="geometry">
            <mxRectangle width="99" height="50" as="alternateBounds" />
          </mxGeometry>
        </mxCell>
        <mxCell id="1qGrM2Z2qLWV-Hj0ncUH-164" value="789" style="shape=partialRectangle;html=1;whiteSpace=wrap;connectable=0;overflow=hidden;fillColor=none;top=0;left=0;bottom=0;right=0;pointerEvents=1;fontSize=13;" vertex="1" parent="1qGrM2Z2qLWV-Hj0ncUH-162">
          <mxGeometry x="99" width="112" height="50" as="geometry">
            <mxRectangle width="112" height="50" as="alternateBounds" />
          </mxGeometry>
        </mxCell>
        <mxCell id="1qGrM2Z2qLWV-Hj0ncUH-165" value="8" style="shape=partialRectangle;html=1;whiteSpace=wrap;connectable=0;overflow=hidden;fillColor=none;top=0;left=0;bottom=0;right=0;pointerEvents=1;fontSize=13;" vertex="1" parent="1qGrM2Z2qLWV-Hj0ncUH-162">
          <mxGeometry x="211" width="99" height="50" as="geometry">
            <mxRectangle width="99" height="50" as="alternateBounds" />
          </mxGeometry>
        </mxCell>
        <mxCell id="v1vIa1xV1tvnQ-AfuU4b-71" value="" style="shape=table;startSize=0;container=1;collapsible=0;childLayout=tableLayout;fontSize=13;" parent="1" vertex="1">
          <mxGeometry x="12" y="1670" width="480" height="160" as="geometry" />
        </mxCell>
        <mxCell id="v1vIa1xV1tvnQ-AfuU4b-72" value="" style="shape=tableRow;horizontal=0;startSize=0;swimlaneHead=0;swimlaneBody=0;top=0;left=0;bottom=0;right=0;collapsible=0;dropTarget=0;fillColor=none;points=[[0,0.5],[1,0.5]];portConstraint=eastwest;fontSize=13;" parent="v1vIa1xV1tvnQ-AfuU4b-71" vertex="1">
          <mxGeometry width="480" height="40" as="geometry" />
        </mxCell>
        <mxCell id="v1vIa1xV1tvnQ-AfuU4b-73" value="&lt;b&gt;&lt;u&gt;SSN&lt;/u&gt;&lt;/b&gt;" style="shape=partialRectangle;html=1;whiteSpace=wrap;connectable=0;overflow=hidden;fillColor=none;top=0;left=0;bottom=0;right=0;pointerEvents=1;fontSize=13;" parent="v1vIa1xV1tvnQ-AfuU4b-72" vertex="1">
          <mxGeometry width="76" height="40" as="geometry">
            <mxRectangle width="76" height="40" as="alternateBounds" />
          </mxGeometry>
        </mxCell>
        <mxCell id="v1vIa1xV1tvnQ-AfuU4b-74" value="&lt;u&gt;&lt;b&gt;NAME&lt;/b&gt;&lt;/u&gt;" style="shape=partialRectangle;html=1;whiteSpace=wrap;connectable=0;overflow=hidden;fillColor=none;top=0;left=0;bottom=0;right=0;pointerEvents=1;fontSize=13;" parent="v1vIa1xV1tvnQ-AfuU4b-72" vertex="1">
          <mxGeometry x="76" width="90" height="40" as="geometry">
            <mxRectangle width="90" height="40" as="alternateBounds" />
          </mxGeometry>
        </mxCell>
        <mxCell id="v1vIa1xV1tvnQ-AfuU4b-75" value="SEX" style="shape=partialRectangle;html=1;whiteSpace=wrap;connectable=0;overflow=hidden;fillColor=none;top=0;left=0;bottom=0;right=0;pointerEvents=1;fontSize=13;" parent="v1vIa1xV1tvnQ-AfuU4b-72" vertex="1">
          <mxGeometry x="166" width="90" height="40" as="geometry">
            <mxRectangle width="90" height="40" as="alternateBounds" />
          </mxGeometry>
        </mxCell>
        <mxCell id="v1vIa1xV1tvnQ-AfuU4b-76" value="BDATE" style="shape=partialRectangle;html=1;whiteSpace=wrap;connectable=0;overflow=hidden;fillColor=none;top=0;left=0;bottom=0;right=0;pointerEvents=1;fontSize=13;" parent="v1vIa1xV1tvnQ-AfuU4b-72" vertex="1">
          <mxGeometry x="256" width="100" height="40" as="geometry">
            <mxRectangle width="100" height="40" as="alternateBounds" />
          </mxGeometry>
        </mxCell>
        <mxCell id="v1vIa1xV1tvnQ-AfuU4b-77" value="RELATIONSHIP" style="shape=partialRectangle;html=1;whiteSpace=wrap;connectable=0;overflow=hidden;fillColor=none;top=0;left=0;bottom=0;right=0;pointerEvents=1;fontSize=13;" parent="v1vIa1xV1tvnQ-AfuU4b-72" vertex="1">
          <mxGeometry x="356" width="124" height="40" as="geometry">
            <mxRectangle width="124" height="40" as="alternateBounds" />
          </mxGeometry>
        </mxCell>
        <mxCell id="1qGrM2Z2qLWV-Hj0ncUH-166" value="" style="shape=tableRow;horizontal=0;startSize=0;swimlaneHead=0;swimlaneBody=0;top=0;left=0;bottom=0;right=0;collapsible=0;dropTarget=0;fillColor=none;points=[[0,0.5],[1,0.5]];portConstraint=eastwest;fontSize=13;" vertex="1" parent="v1vIa1xV1tvnQ-AfuU4b-71">
          <mxGeometry y="40" width="480" height="40" as="geometry" />
        </mxCell>
        <mxCell id="1qGrM2Z2qLWV-Hj0ncUH-167" value="150" style="shape=partialRectangle;html=1;whiteSpace=wrap;connectable=0;overflow=hidden;fillColor=none;top=0;left=0;bottom=0;right=0;pointerEvents=1;fontSize=13;" vertex="1" parent="1qGrM2Z2qLWV-Hj0ncUH-166">
          <mxGeometry width="76" height="40" as="geometry">
            <mxRectangle width="76" height="40" as="alternateBounds" />
          </mxGeometry>
        </mxCell>
        <mxCell id="1qGrM2Z2qLWV-Hj0ncUH-168" value="STEPHANIE" style="shape=partialRectangle;html=1;whiteSpace=wrap;connectable=0;overflow=hidden;fillColor=none;top=0;left=0;bottom=0;right=0;pointerEvents=1;fontSize=13;" vertex="1" parent="1qGrM2Z2qLWV-Hj0ncUH-166">
          <mxGeometry x="76" width="90" height="40" as="geometry">
            <mxRectangle width="90" height="40" as="alternateBounds" />
          </mxGeometry>
        </mxCell>
        <mxCell id="1qGrM2Z2qLWV-Hj0ncUH-169" value="FEMALE" style="shape=partialRectangle;html=1;whiteSpace=wrap;connectable=0;overflow=hidden;fillColor=none;top=0;left=0;bottom=0;right=0;pointerEvents=1;fontSize=13;" vertex="1" parent="1qGrM2Z2qLWV-Hj0ncUH-166">
          <mxGeometry x="166" width="90" height="40" as="geometry">
            <mxRectangle width="90" height="40" as="alternateBounds" />
          </mxGeometry>
        </mxCell>
        <mxCell id="1qGrM2Z2qLWV-Hj0ncUH-170" value="BDATE" style="shape=partialRectangle;html=1;whiteSpace=wrap;connectable=0;overflow=hidden;fillColor=none;top=0;left=0;bottom=0;right=0;pointerEvents=1;fontSize=13;" vertex="1" parent="1qGrM2Z2qLWV-Hj0ncUH-166">
          <mxGeometry x="256" width="100" height="40" as="geometry">
            <mxRectangle width="100" height="40" as="alternateBounds" />
          </mxGeometry>
        </mxCell>
        <mxCell id="1qGrM2Z2qLWV-Hj0ncUH-171" value="WIFE" style="shape=partialRectangle;html=1;whiteSpace=wrap;connectable=0;overflow=hidden;fillColor=none;top=0;left=0;bottom=0;right=0;pointerEvents=1;fontSize=13;" vertex="1" parent="1qGrM2Z2qLWV-Hj0ncUH-166">
          <mxGeometry x="356" width="124" height="40" as="geometry">
            <mxRectangle width="124" height="40" as="alternateBounds" />
          </mxGeometry>
        </mxCell>
        <mxCell id="1qGrM2Z2qLWV-Hj0ncUH-172" value="" style="shape=tableRow;horizontal=0;startSize=0;swimlaneHead=0;swimlaneBody=0;top=0;left=0;bottom=0;right=0;collapsible=0;dropTarget=0;fillColor=none;points=[[0,0.5],[1,0.5]];portConstraint=eastwest;fontSize=13;" vertex="1" parent="v1vIa1xV1tvnQ-AfuU4b-71">
          <mxGeometry y="80" width="480" height="40" as="geometry" />
        </mxCell>
        <mxCell id="1qGrM2Z2qLWV-Hj0ncUH-173" value="150" style="shape=partialRectangle;html=1;whiteSpace=wrap;connectable=0;overflow=hidden;fillColor=none;top=0;left=0;bottom=0;right=0;pointerEvents=1;fontSize=13;" vertex="1" parent="1qGrM2Z2qLWV-Hj0ncUH-172">
          <mxGeometry width="76" height="40" as="geometry">
            <mxRectangle width="76" height="40" as="alternateBounds" />
          </mxGeometry>
        </mxCell>
        <mxCell id="1qGrM2Z2qLWV-Hj0ncUH-174" value="JENNY" style="shape=partialRectangle;html=1;whiteSpace=wrap;connectable=0;overflow=hidden;fillColor=none;top=0;left=0;bottom=0;right=0;pointerEvents=1;fontSize=13;" vertex="1" parent="1qGrM2Z2qLWV-Hj0ncUH-172">
          <mxGeometry x="76" width="90" height="40" as="geometry">
            <mxRectangle width="90" height="40" as="alternateBounds" />
          </mxGeometry>
        </mxCell>
        <mxCell id="1qGrM2Z2qLWV-Hj0ncUH-175" value="FEMALE" style="shape=partialRectangle;html=1;whiteSpace=wrap;connectable=0;overflow=hidden;fillColor=none;top=0;left=0;bottom=0;right=0;pointerEvents=1;fontSize=13;" vertex="1" parent="1qGrM2Z2qLWV-Hj0ncUH-172">
          <mxGeometry x="166" width="90" height="40" as="geometry">
            <mxRectangle width="90" height="40" as="alternateBounds" />
          </mxGeometry>
        </mxCell>
        <mxCell id="1qGrM2Z2qLWV-Hj0ncUH-176" value="BDATE" style="shape=partialRectangle;html=1;whiteSpace=wrap;connectable=0;overflow=hidden;fillColor=none;top=0;left=0;bottom=0;right=0;pointerEvents=1;fontSize=13;" vertex="1" parent="1qGrM2Z2qLWV-Hj0ncUH-172">
          <mxGeometry x="256" width="100" height="40" as="geometry">
            <mxRectangle width="100" height="40" as="alternateBounds" />
          </mxGeometry>
        </mxCell>
        <mxCell id="1qGrM2Z2qLWV-Hj0ncUH-177" value="DAUGHTER" style="shape=partialRectangle;html=1;whiteSpace=wrap;connectable=0;overflow=hidden;fillColor=none;top=0;left=0;bottom=0;right=0;pointerEvents=1;fontSize=13;" vertex="1" parent="1qGrM2Z2qLWV-Hj0ncUH-172">
          <mxGeometry x="356" width="124" height="40" as="geometry">
            <mxRectangle width="124" height="40" as="alternateBounds" />
          </mxGeometry>
        </mxCell>
        <mxCell id="1qGrM2Z2qLWV-Hj0ncUH-178" value="" style="shape=tableRow;horizontal=0;startSize=0;swimlaneHead=0;swimlaneBody=0;top=0;left=0;bottom=0;right=0;collapsible=0;dropTarget=0;fillColor=none;points=[[0,0.5],[1,0.5]];portConstraint=eastwest;fontSize=13;" vertex="1" parent="v1vIa1xV1tvnQ-AfuU4b-71">
          <mxGeometry y="120" width="480" height="40" as="geometry" />
        </mxCell>
        <mxCell id="1qGrM2Z2qLWV-Hj0ncUH-179" value="150" style="shape=partialRectangle;html=1;whiteSpace=wrap;connectable=0;overflow=hidden;fillColor=none;top=0;left=0;bottom=0;right=0;pointerEvents=1;fontSize=13;" vertex="1" parent="1qGrM2Z2qLWV-Hj0ncUH-178">
          <mxGeometry width="76" height="40" as="geometry">
            <mxRectangle width="76" height="40" as="alternateBounds" />
          </mxGeometry>
        </mxCell>
        <mxCell id="1qGrM2Z2qLWV-Hj0ncUH-180" value="JULIA" style="shape=partialRectangle;html=1;whiteSpace=wrap;connectable=0;overflow=hidden;fillColor=none;top=0;left=0;bottom=0;right=0;pointerEvents=1;fontSize=13;" vertex="1" parent="1qGrM2Z2qLWV-Hj0ncUH-178">
          <mxGeometry x="76" width="90" height="40" as="geometry">
            <mxRectangle width="90" height="40" as="alternateBounds" />
          </mxGeometry>
        </mxCell>
        <mxCell id="1qGrM2Z2qLWV-Hj0ncUH-181" value="FEMALE" style="shape=partialRectangle;html=1;whiteSpace=wrap;connectable=0;overflow=hidden;fillColor=none;top=0;left=0;bottom=0;right=0;pointerEvents=1;fontSize=13;" vertex="1" parent="1qGrM2Z2qLWV-Hj0ncUH-178">
          <mxGeometry x="166" width="90" height="40" as="geometry">
            <mxRectangle width="90" height="40" as="alternateBounds" />
          </mxGeometry>
        </mxCell>
        <mxCell id="1qGrM2Z2qLWV-Hj0ncUH-182" value="BDATE" style="shape=partialRectangle;html=1;whiteSpace=wrap;connectable=0;overflow=hidden;fillColor=none;top=0;left=0;bottom=0;right=0;pointerEvents=1;fontSize=13;" vertex="1" parent="1qGrM2Z2qLWV-Hj0ncUH-178">
          <mxGeometry x="256" width="100" height="40" as="geometry">
            <mxRectangle width="100" height="40" as="alternateBounds" />
          </mxGeometry>
        </mxCell>
        <mxCell id="1qGrM2Z2qLWV-Hj0ncUH-183" value="DAUGHTER" style="shape=partialRectangle;html=1;whiteSpace=wrap;connectable=0;overflow=hidden;fillColor=none;top=0;left=0;bottom=0;right=0;pointerEvents=1;fontSize=13;" vertex="1" parent="1qGrM2Z2qLWV-Hj0ncUH-178">
          <mxGeometry x="356" width="124" height="40" as="geometry">
            <mxRectangle width="124" height="40" as="alternateBounds" />
          </mxGeometry>
        </mxCell>
        <mxCell id="v1vIa1xV1tvnQ-AfuU4b-78" value="&lt;span style=&quot;font-size: 19px;&quot;&gt;&lt;b&gt;DEPENDENTS&lt;/b&gt;&lt;/span&gt;" style="text;html=1;align=center;verticalAlign=middle;resizable=0;points=[];autosize=1;strokeColor=none;fillColor=none;fontSize=13;" parent="1" vertex="1">
          <mxGeometry x="12" y="1620" width="150" height="40" as="geometry" />
        </mxCell>
        <mxCell id="1qGrM2Z2qLWV-Hj0ncUH-208" value="" style="endArrow=classic;html=1;rounded=0;exitX=0.315;exitY=-0.108;exitDx=0;exitDy=0;exitPerimeter=0;entryX=0.043;entryY=1.042;entryDx=0;entryDy=0;entryPerimeter=0;" edge="1" parent="1" source="v1vIa1xV1tvnQ-AfuU4b-37" target="1qGrM2Z2qLWV-Hj0ncUH-184">
          <mxGeometry width="50" height="50" relative="1" as="geometry">
            <mxPoint x="320" y="370" as="sourcePoint" />
            <mxPoint x="370" y="320" as="targetPoint" />
            <Array as="points">
              <mxPoint x="187" y="390" />
              <mxPoint x="40" y="390" />
            </Array>
          </mxGeometry>
        </mxCell>
        <mxCell id="1qGrM2Z2qLWV-Hj0ncUH-209" value="" style="endArrow=classic;html=1;rounded=0;entryX=0.113;entryY=1.089;entryDx=0;entryDy=0;entryPerimeter=0;" edge="1" parent="1" target="1qGrM2Z2qLWV-Hj0ncUH-90">
          <mxGeometry width="50" height="50" relative="1" as="geometry">
            <mxPoint x="240" y="360" as="sourcePoint" />
            <mxPoint x="70" y="600" as="targetPoint" />
            <Array as="points">
              <mxPoint x="240" y="370" />
              <mxPoint x="680" y="370" />
              <mxPoint x="680" y="670" />
              <mxPoint x="70" y="670" />
            </Array>
          </mxGeometry>
        </mxCell>
        <mxCell id="1qGrM2Z2qLWV-Hj0ncUH-210" value="" style="endArrow=classic;html=1;rounded=0;" edge="1" parent="1">
          <mxGeometry width="50" height="50" relative="1" as="geometry">
            <mxPoint x="120" y="360" as="sourcePoint" />
            <mxPoint x="50" y="353" as="targetPoint" />
            <Array as="points">
              <mxPoint x="120" y="370" />
              <mxPoint x="50" y="370" />
            </Array>
          </mxGeometry>
        </mxCell>
        <mxCell id="1qGrM2Z2qLWV-Hj0ncUH-211" value="" style="endArrow=classic;html=1;rounded=0;exitX=0.262;exitY=-0.042;exitDx=0;exitDy=0;exitPerimeter=0;" edge="1" parent="1" source="v1vIa1xV1tvnQ-AfuU4b-19">
          <mxGeometry width="50" height="50" relative="1" as="geometry">
            <mxPoint x="350" y="680" as="sourcePoint" />
            <mxPoint x="25" y="640" as="targetPoint" />
            <Array as="points">
              <mxPoint x="227" y="690" />
              <mxPoint x="25" y="690" />
            </Array>
          </mxGeometry>
        </mxCell>
        <mxCell id="1qGrM2Z2qLWV-Hj0ncUH-212" value="" style="endArrow=classic;html=1;rounded=0;entryX=0.075;entryY=1.083;entryDx=0;entryDy=0;entryPerimeter=0;" edge="1" parent="1" target="1qGrM2Z2qLWV-Hj0ncUH-90">
          <mxGeometry width="50" height="50" relative="1" as="geometry">
            <mxPoint x="230" y="1120" as="sourcePoint" />
            <mxPoint x="500" y="1020" as="targetPoint" />
            <Array as="points">
              <mxPoint x="230" y="1100" />
              <mxPoint x="950" y="1100" />
              <mxPoint x="950" y="680" />
              <mxPoint x="48" y="680" />
            </Array>
          </mxGeometry>
        </mxCell>
        <mxCell id="1qGrM2Z2qLWV-Hj0ncUH-213" value="" style="endArrow=classic;html=1;rounded=0;exitX=0.501;exitY=-0.08;exitDx=0;exitDy=0;exitPerimeter=0;entryX=0.122;entryY=1.128;entryDx=0;entryDy=0;entryPerimeter=0;" edge="1" parent="1" source="v1vIa1xV1tvnQ-AfuU4b-67" target="1qGrM2Z2qLWV-Hj0ncUH-105">
          <mxGeometry width="50" height="50" relative="1" as="geometry">
            <mxPoint x="460" y="1310" as="sourcePoint" />
            <mxPoint x="510" y="1260" as="targetPoint" />
            <Array as="points">
              <mxPoint x="159" y="1320" />
              <mxPoint x="80" y="1320" />
            </Array>
          </mxGeometry>
        </mxCell>
        <mxCell id="1qGrM2Z2qLWV-Hj0ncUH-214" value="" style="endArrow=classic;html=1;rounded=0;exitX=0.141;exitY=1.118;exitDx=0;exitDy=0;exitPerimeter=0;entryX=0.03;entryY=0.999;entryDx=0;entryDy=0;entryPerimeter=0;" edge="1" parent="1" source="1qGrM2Z2qLWV-Hj0ncUH-162" target="1qGrM2Z2qLWV-Hj0ncUH-184">
          <mxGeometry width="50" height="50" relative="1" as="geometry">
            <mxPoint x="430" y="1590" as="sourcePoint" />
            <mxPoint x="480" y="1540" as="targetPoint" />
            <Array as="points">
              <mxPoint x="48" y="1600" />
              <mxPoint x="860" y="1600" />
              <mxPoint x="860" y="410" />
              <mxPoint x="29" y="410" />
            </Array>
          </mxGeometry>
        </mxCell>
        <mxCell id="1qGrM2Z2qLWV-Hj0ncUH-215" value="" style="endArrow=classic;html=1;rounded=0;exitX=0.076;exitY=1.167;exitDx=0;exitDy=0;exitPerimeter=0;entryX=0.009;entryY=1.002;entryDx=0;entryDy=0;entryPerimeter=0;" edge="1" parent="1" source="1qGrM2Z2qLWV-Hj0ncUH-178" target="1qGrM2Z2qLWV-Hj0ncUH-184">
          <mxGeometry width="50" height="50" relative="1" as="geometry">
            <mxPoint x="160" y="1950" as="sourcePoint" />
            <mxPoint x="210" y="1900" as="targetPoint" />
            <Array as="points">
              <mxPoint x="48" y="1880" />
              <mxPoint x="900" y="1880" />
              <mxPoint x="900" y="390" />
              <mxPoint x="12" y="390" />
            </Array>
          </mxGeometry>
        </mxCell>
      </root>
    </mxGraphModel>
  </diagram>
</mxfile>
